%TF.GenerationSoftware,KiCad,Pcbnew,9.0.1*%
%TF.CreationDate,2026-06-16T16:36:36+02:00*%
%TF.ProjectId,jagan driver board,6a616761-6e20-4647-9269-76657220626f,rev?*%
%TF.SameCoordinates,Original*%
%TF.FileFunction,Soldermask,Top*%
%TF.FilePolarity,Negative*%
%FSLAX46Y46*%
G04 Gerber Fmt 4.6, Leading zero omitted, Abs format (unit mm)*
G04 Created by KiCad (PCBNEW 9.0.1) date 2026-06-16 16:36:36*
%MOMM*%
%LPD*%
G01*
G04 APERTURE LIST*
G04 Aperture macros list*
%AMRoundRect*
0 Rectangle with rounded corners*
0 $1 Rounding radius*
0 $2 $3 $4 $5 $6 $7 $8 $9 X,Y pos of 4 corners*
0 Add a 4 corners polygon primitive as box body*
4,1,4,$2,$3,$4,$5,$6,$7,$8,$9,$2,$3,0*
0 Add four circle primitives for the rounded corners*
1,1,$1+$1,$2,$3*
1,1,$1+$1,$4,$5*
1,1,$1+$1,$6,$7*
1,1,$1+$1,$8,$9*
0 Add four rect primitives between the rounded corners*
20,1,$1+$1,$2,$3,$4,$5,0*
20,1,$1+$1,$4,$5,$6,$7,0*
20,1,$1+$1,$6,$7,$8,$9,0*
20,1,$1+$1,$8,$9,$2,$3,0*%
G04 Aperture macros list end*
%ADD10C,5.600000*%
%ADD11R,2.540000X4.000000*%
%ADD12R,1.700000X1.700000*%
%ADD13C,1.700000*%
%ADD14C,3.200000*%
%ADD15RoundRect,0.243750X-0.456250X0.243750X-0.456250X-0.243750X0.456250X-0.243750X0.456250X0.243750X0*%
%ADD16R,3.500000X3.500000*%
%ADD17RoundRect,0.750000X-1.000000X0.750000X-1.000000X-0.750000X1.000000X-0.750000X1.000000X0.750000X0*%
%ADD18RoundRect,0.875000X-0.875000X0.875000X-0.875000X-0.875000X0.875000X-0.875000X0.875000X0.875000X0*%
%ADD19RoundRect,0.250000X-0.250000X-0.475000X0.250000X-0.475000X0.250000X0.475000X-0.250000X0.475000X0*%
%ADD20RoundRect,0.250000X0.350000X0.450000X-0.350000X0.450000X-0.350000X-0.450000X0.350000X-0.450000X0*%
%ADD21RoundRect,0.250000X-0.450000X0.262500X-0.450000X-0.262500X0.450000X-0.262500X0.450000X0.262500X0*%
%ADD22RoundRect,0.250000X-0.750000X0.750000X-0.750000X-0.750000X0.750000X-0.750000X0.750000X0.750000X0*%
%ADD23C,2.000000*%
%ADD24RoundRect,0.250000X-1.050000X1.050000X-1.050000X-1.050000X1.050000X-1.050000X1.050000X1.050000X0*%
%ADD25C,2.600000*%
G04 APERTURE END LIST*
D10*
%TO.C,*%
X9620000Y45000000D03*
%TD*%
%TO.C,*%
X9620000Y8110000D03*
%TD*%
%TO.C,*%
X-27750000Y8110000D03*
%TD*%
%TO.C,REF\u002A\u002A*%
X-27750000Y45000000D03*
%TD*%
D11*
%TO.C,SW1*%
X-61070000Y38730000D03*
X-56370000Y38730000D03*
X-51670000Y38730000D03*
%TD*%
D12*
%TO.C,J15*%
X38100000Y-19050000D03*
D13*
X35560000Y-19050000D03*
X33020000Y-19050000D03*
X30480000Y-19050000D03*
X27940000Y-19050000D03*
X25400000Y-19050000D03*
X22860000Y-19050000D03*
X20320000Y-19050000D03*
%TD*%
D12*
%TO.C,J13*%
X38100000Y11430000D03*
D13*
X35560000Y11430000D03*
X33020000Y11430000D03*
X30480000Y11430000D03*
X27940000Y11430000D03*
X25400000Y11430000D03*
X22860000Y11430000D03*
X20320000Y11430000D03*
%TD*%
D12*
%TO.C,J4*%
X-66675000Y-41275000D03*
D13*
X-66675000Y-38735000D03*
X-66675000Y-36195000D03*
X-66675000Y-33655000D03*
X-66675000Y-31115000D03*
X-66675000Y-28575000D03*
X-66675000Y-26035000D03*
X-66675000Y-23495000D03*
X-66675000Y-20955000D03*
X-66675000Y-18415000D03*
X-66675000Y-15875000D03*
X-66675000Y-13335000D03*
X-66675000Y-10795000D03*
X-66675000Y-8255000D03*
X-66675000Y-5715000D03*
X-66675000Y-3175000D03*
X-66675000Y-635000D03*
X-66675000Y1905000D03*
X-66675000Y4445000D03*
X-66675000Y6985000D03*
%TD*%
D12*
%TO.C,J17*%
X-3810000Y-2540000D03*
D13*
X-1270000Y-2540000D03*
X1270000Y-2540000D03*
X3810000Y-2540000D03*
%TD*%
D14*
%TO.C,H3*%
X50000000Y46500000D03*
%TD*%
D12*
%TO.C,J18*%
X-41275000Y-3175000D03*
D13*
X-41275000Y-5715000D03*
X-41275000Y-8255000D03*
X-41275000Y-10795000D03*
%TD*%
D12*
%TO.C,J11*%
X38100000Y41910000D03*
D13*
X35560000Y41910000D03*
X33020000Y41910000D03*
X30480000Y41910000D03*
X27940000Y41910000D03*
X25400000Y41910000D03*
X22860000Y41910000D03*
X20320000Y41910000D03*
%TD*%
D12*
%TO.C,J14*%
X38100000Y-11430000D03*
D13*
X35560000Y-11430000D03*
X33020000Y-11430000D03*
X30480000Y-11430000D03*
X27940000Y-11430000D03*
X25400000Y-11430000D03*
X22860000Y-11430000D03*
X20320000Y-11430000D03*
%TD*%
D15*
%TO.C,D3*%
X-45085000Y19352500D03*
X-45085000Y17477500D03*
%TD*%
D16*
%TO.C,J2*%
X-40640000Y36830000D03*
D17*
X-40640000Y42830000D03*
D18*
X-45340000Y39830000D03*
%TD*%
D19*
%TO.C,C1*%
X-62900000Y46300000D03*
X-61000000Y46300000D03*
%TD*%
D12*
%TO.C,J10*%
X-46355000Y-41275000D03*
D13*
X-46355000Y-38735000D03*
X-46355000Y-36195000D03*
X-46355000Y-33655000D03*
X-46355000Y-31115000D03*
X-46355000Y-28575000D03*
X-46355000Y-26035000D03*
X-46355000Y-23495000D03*
X-46355000Y-20955000D03*
X-46355000Y-18415000D03*
X-46355000Y-15875000D03*
X-46355000Y-13335000D03*
X-46355000Y-10795000D03*
X-46355000Y-8255000D03*
X-46355000Y-5715000D03*
X-46355000Y-3175000D03*
X-46355000Y-635000D03*
X-46355000Y1905000D03*
X-46355000Y4445000D03*
X-46355000Y6985000D03*
%TD*%
D20*
%TO.C,R9*%
X-27575000Y-6350000D03*
X-29575000Y-6350000D03*
%TD*%
D12*
%TO.C,J8*%
X-71755000Y-41275000D03*
D13*
X-71755000Y-38735000D03*
X-71755000Y-36195000D03*
X-71755000Y-33655000D03*
X-71755000Y-31115000D03*
X-71755000Y-28575000D03*
X-71755000Y-26035000D03*
X-71755000Y-23495000D03*
X-71755000Y-20955000D03*
X-71755000Y-18415000D03*
X-71755000Y-15875000D03*
X-71755000Y-13335000D03*
X-71755000Y-10795000D03*
X-71755000Y-8255000D03*
X-71755000Y-5715000D03*
X-71755000Y-3175000D03*
X-71755000Y-635000D03*
X-71755000Y1905000D03*
X-71755000Y4445000D03*
X-71755000Y6985000D03*
%TD*%
D21*
%TO.C,R3*%
X-41275000Y19327500D03*
X-41275000Y17502500D03*
%TD*%
D20*
%TO.C,R8*%
X-22495000Y-6350000D03*
X-24495000Y-6350000D03*
%TD*%
D12*
%TO.C,J12*%
X38100000Y19050000D03*
D13*
X35560000Y19050000D03*
X33020000Y19050000D03*
X30480000Y19050000D03*
X27940000Y19050000D03*
X25400000Y19050000D03*
X22860000Y19050000D03*
X20320000Y19050000D03*
%TD*%
D14*
%TO.C,H1*%
X50000000Y-46500000D03*
%TD*%
%TO.C,H2*%
X-50000000Y-46500000D03*
%TD*%
D22*
%TO.C,U9*%
X-53340000Y13970000D03*
D23*
X-55880000Y13970000D03*
X-58420000Y13970000D03*
%TD*%
D22*
%TO.C,U8*%
X-53340000Y26035000D03*
D23*
X-55880000Y26035000D03*
X-58420000Y26035000D03*
%TD*%
D14*
%TO.C,H4*%
X-50000000Y46500000D03*
%TD*%
D12*
%TO.C,J6*%
X45720000Y11430000D03*
D13*
X43180000Y11430000D03*
%TD*%
D12*
%TO.C,J9*%
X-51435000Y-41275000D03*
D13*
X-51435000Y-38735000D03*
X-51435000Y-36195000D03*
X-51435000Y-33655000D03*
X-51435000Y-31115000D03*
X-51435000Y-28575000D03*
X-51435000Y-26035000D03*
X-51435000Y-23495000D03*
X-51435000Y-20955000D03*
X-51435000Y-18415000D03*
X-51435000Y-15875000D03*
X-51435000Y-13335000D03*
X-51435000Y-10795000D03*
X-51435000Y-8255000D03*
X-51435000Y-5715000D03*
X-51435000Y-3175000D03*
X-51435000Y-635000D03*
X-51435000Y1905000D03*
X-51435000Y4445000D03*
X-51435000Y6985000D03*
%TD*%
D12*
%TO.C,J16*%
X38100000Y-41910000D03*
D13*
X35560000Y-41910000D03*
X33020000Y-41910000D03*
X30480000Y-41910000D03*
X27940000Y-41910000D03*
X25400000Y-41910000D03*
X22860000Y-41910000D03*
X20320000Y-41910000D03*
%TD*%
D24*
%TO.C,J1*%
X-70366924Y31666665D03*
D25*
X-70366924Y26586665D03*
%TD*%
D24*
%TO.C,J3*%
X-70331880Y19541687D03*
D25*
X-70331880Y14461687D03*
%TD*%
D15*
%TO.C,D2*%
X-45085000Y25702500D03*
X-45085000Y23827500D03*
%TD*%
D21*
%TO.C,R1*%
X-41275000Y32027500D03*
X-41275000Y30202500D03*
%TD*%
%TO.C,R2*%
X-41275000Y25677500D03*
X-41275000Y23852500D03*
%TD*%
D15*
%TO.C,D1*%
X-45085000Y32052500D03*
X-45085000Y30177500D03*
%TD*%
D20*
%TO.C,R5*%
X-9795000Y-6350000D03*
X-11795000Y-6350000D03*
%TD*%
D24*
%TO.C,J7*%
X-70331880Y43510019D03*
D25*
X-70331880Y38430019D03*
%TD*%
D20*
%TO.C,R4*%
X-14875000Y-6350000D03*
X-16875000Y-6350000D03*
%TD*%
D12*
%TO.C,J5*%
X45720000Y41910000D03*
D13*
X43180000Y41910000D03*
%TD*%
M02*
