M48
; DRILL file {KiCad 9.0.1} date 2026-06-16T16:36:31+0200
; FORMAT={-:-/ absolute / metric / decimal}
; #@! TF.CreationDate,2026-06-16T16:36:31+02:00
; #@! TF.GenerationSoftware,Kicad,Pcbnew,9.0.1
; #@! TF.FileFunction,Plated,1,2,PTH
FMAT,2
METRIC
; #@! TA.AperFunction,Plated,PTH,ViaDrill
T1C0.300
; #@! TA.AperFunction,Plated,PTH,ComponentDrill
T2C1.000
; #@! TA.AperFunction,Plated,PTH,ComponentDrill
T3C1.270
; #@! TA.AperFunction,Plated,PTH,ComponentDrill
T4C1.300
; #@! TA.AperFunction,Plated,PTH,ComponentDrill
T5C1.400
; #@! TA.AperFunction,Plated,PTH,ComponentDrill
T6C3.200
%
G90
G05
T1
X-22.352Y-22.352
X-21.844Y-22.86
X-21.336Y-23.368
X-20.828Y-23.876
X-20.32Y-24.384
X-19.812Y-24.892
T2
X-71.755Y6.985
X-71.755Y4.445
X-71.755Y1.905
X-71.755Y-0.635
X-71.755Y-3.175
X-71.755Y-5.715
X-71.755Y-8.255
X-71.755Y-10.795
X-71.755Y-13.335
X-71.755Y-15.875
X-71.755Y-18.415
X-71.755Y-20.955
X-71.755Y-23.495
X-71.755Y-26.035
X-71.755Y-28.575
X-71.755Y-31.115
X-71.755Y-33.655
X-71.755Y-36.195
X-71.755Y-38.735
X-71.755Y-41.275
X-66.675Y6.985
X-66.675Y4.445
X-66.675Y1.905
X-66.675Y-0.635
X-66.675Y-3.175
X-66.675Y-5.715
X-66.675Y-8.255
X-66.675Y-10.795
X-66.675Y-13.335
X-66.675Y-15.875
X-66.675Y-18.415
X-66.675Y-20.955
X-66.675Y-23.495
X-66.675Y-26.035
X-66.675Y-28.575
X-66.675Y-31.115
X-66.675Y-33.655
X-66.675Y-36.195
X-66.675Y-38.735
X-66.675Y-41.275
X-51.435Y6.985
X-51.435Y4.445
X-51.435Y1.905
X-51.435Y-0.635
X-51.435Y-3.175
X-51.435Y-5.715
X-51.435Y-8.255
X-51.435Y-10.795
X-51.435Y-13.335
X-51.435Y-15.875
X-51.435Y-18.415
X-51.435Y-20.955
X-51.435Y-23.495
X-51.435Y-26.035
X-51.435Y-28.575
X-51.435Y-31.115
X-51.435Y-33.655
X-51.435Y-36.195
X-51.435Y-38.735
X-51.435Y-41.275
X-46.355Y6.985
X-46.355Y4.445
X-46.355Y1.905
X-46.355Y-0.635
X-46.355Y-3.175
X-46.355Y-5.715
X-46.355Y-8.255
X-46.355Y-10.795
X-46.355Y-13.335
X-46.355Y-15.875
X-46.355Y-18.415
X-46.355Y-20.955
X-46.355Y-23.495
X-46.355Y-26.035
X-46.355Y-28.575
X-46.355Y-31.115
X-46.355Y-33.655
X-46.355Y-36.195
X-46.355Y-38.735
X-46.355Y-41.275
X-41.275Y-3.175
X-41.275Y-5.715
X-41.275Y-8.255
X-41.275Y-10.795
X-3.81Y-2.54
X-1.27Y-2.54
X1.27Y-2.54
X3.81Y-2.54
X20.32Y41.91
X20.32Y19.05
X20.32Y11.43
X20.32Y-11.43
X20.32Y-19.05
X20.32Y-41.91
X22.86Y41.91
X22.86Y19.05
X22.86Y11.43
X22.86Y-11.43
X22.86Y-19.05
X22.86Y-41.91
X25.4Y41.91
X25.4Y19.05
X25.4Y11.43
X25.4Y-11.43
X25.4Y-19.05
X25.4Y-41.91
X27.94Y41.91
X27.94Y19.05
X27.94Y11.43
X27.94Y-11.43
X27.94Y-19.05
X27.94Y-41.91
X30.48Y41.91
X30.48Y19.05
X30.48Y11.43
X30.48Y-11.43
X30.48Y-19.05
X30.48Y-41.91
X33.02Y41.91
X33.02Y19.05
X33.02Y11.43
X33.02Y-11.43
X33.02Y-19.05
X33.02Y-41.91
X35.56Y41.91
X35.56Y19.05
X35.56Y11.43
X35.56Y-11.43
X35.56Y-19.05
X35.56Y-41.91
X38.1Y41.91
X38.1Y19.05
X38.1Y11.43
X38.1Y-11.43
X38.1Y-19.05
X38.1Y-41.91
X43.18Y41.91
X43.18Y11.43
X45.72Y41.91
X45.72Y11.43
T4
X-70.367Y31.667
X-70.367Y26.587
X-70.332Y43.51
X-70.332Y38.43
X-70.332Y19.542
X-70.332Y14.462
T5
X-58.42Y26.035
X-58.42Y13.97
X-55.88Y26.035
X-55.88Y13.97
X-53.34Y26.035
X-53.34Y13.97
T6
X-27.75Y45.0
X-27.75Y8.11
X9.62Y45.0
X9.62Y8.11
T2
G00X-45.34Y40.83
M15
G01X-45.34Y38.83
M16
G05
G00X-39.64Y42.83
M15
G01X-41.64Y42.83
M16
G05
G00X-39.64Y36.83
M15
G01X-41.64Y36.83
M16
G05
T3
G00X-61.07Y39.365
M15
G01X-61.07Y38.095
M16
G05
G00X-56.37Y39.365
M15
G01X-56.37Y38.095
M16
G05
G00X-51.67Y39.365
M15
G01X-51.67Y38.095
M16
G05
M30
