%TF.GenerationSoftware,KiCad,Pcbnew,9.0.1*%
%TF.CreationDate,2026-06-16T16:36:36+02:00*%
%TF.ProjectId,jagan driver board,6a616761-6e20-4647-9269-76657220626f,rev?*%
%TF.SameCoordinates,Original*%
%TF.FileFunction,Legend,Bot*%
%TF.FilePolarity,Positive*%
%FSLAX46Y46*%
G04 Gerber Fmt 4.6, Leading zero omitted, Abs format (unit mm)*
G04 Created by KiCad (PCBNEW 9.0.1) date 2026-06-16 16:36:36*
%MOMM*%
%LPD*%
G01*
G04 APERTURE LIST*
%ADD10C,0.500000*%
%ADD11C,1.000000*%
%ADD12C,0.000000*%
G04 APERTURE END LIST*
D10*
X30316767Y463142D02*
X30316767Y3463142D01*
X30316767Y2034571D02*
X28602481Y2034571D01*
X28602481Y463142D02*
X28602481Y3463142D01*
X25888196Y463142D02*
X25888196Y2034571D01*
X25888196Y2034571D02*
X26031053Y2320285D01*
X26031053Y2320285D02*
X26316767Y2463142D01*
X26316767Y2463142D02*
X26888196Y2463142D01*
X26888196Y2463142D02*
X27173910Y2320285D01*
X25888196Y606000D02*
X26173910Y463142D01*
X26173910Y463142D02*
X26888196Y463142D01*
X26888196Y463142D02*
X27173910Y606000D01*
X27173910Y606000D02*
X27316767Y891714D01*
X27316767Y891714D02*
X27316767Y1177428D01*
X27316767Y1177428D02*
X27173910Y1463142D01*
X27173910Y1463142D02*
X26888196Y1606000D01*
X26888196Y1606000D02*
X26173910Y1606000D01*
X26173910Y1606000D02*
X25888196Y1748857D01*
X24459624Y2463142D02*
X24459624Y-536857D01*
X24459624Y2320285D02*
X24173910Y2463142D01*
X24173910Y2463142D02*
X23602481Y2463142D01*
X23602481Y2463142D02*
X23316767Y2320285D01*
X23316767Y2320285D02*
X23173910Y2177428D01*
X23173910Y2177428D02*
X23031052Y1891714D01*
X23031052Y1891714D02*
X23031052Y1034571D01*
X23031052Y1034571D02*
X23173910Y748857D01*
X23173910Y748857D02*
X23316767Y606000D01*
X23316767Y606000D02*
X23602481Y463142D01*
X23602481Y463142D02*
X24173910Y463142D01*
X24173910Y463142D02*
X24459624Y606000D01*
X22173909Y2463142D02*
X21031052Y2463142D01*
X21745338Y3463142D02*
X21745338Y891714D01*
X21745338Y891714D02*
X21602481Y606000D01*
X21602481Y606000D02*
X21316766Y463142D01*
X21316766Y463142D02*
X21031052Y463142D01*
X20031052Y463142D02*
X20031052Y2463142D01*
X20031052Y3463142D02*
X20173909Y3320285D01*
X20173909Y3320285D02*
X20031052Y3177428D01*
X20031052Y3177428D02*
X19888195Y3320285D01*
X19888195Y3320285D02*
X20031052Y3463142D01*
X20031052Y3463142D02*
X20031052Y3177428D01*
X17316767Y606000D02*
X17602481Y463142D01*
X17602481Y463142D02*
X18173909Y463142D01*
X18173909Y463142D02*
X18459624Y606000D01*
X18459624Y606000D02*
X18602481Y748857D01*
X18602481Y748857D02*
X18745338Y1034571D01*
X18745338Y1034571D02*
X18745338Y1891714D01*
X18745338Y1891714D02*
X18602481Y2177428D01*
X18602481Y2177428D02*
X18459624Y2320285D01*
X18459624Y2320285D02*
X18173909Y2463142D01*
X18173909Y2463142D02*
X17602481Y2463142D01*
X17602481Y2463142D02*
X17316767Y2320285D01*
X13745338Y463142D02*
X13745338Y3463142D01*
X12316767Y2463142D02*
X12316767Y463142D01*
X12316767Y2177428D02*
X12173910Y2320285D01*
X12173910Y2320285D02*
X11888195Y2463142D01*
X11888195Y2463142D02*
X11459624Y2463142D01*
X11459624Y2463142D02*
X11173910Y2320285D01*
X11173910Y2320285D02*
X11031053Y2034571D01*
X11031053Y2034571D02*
X11031053Y463142D01*
X10031052Y2463142D02*
X8888195Y2463142D01*
X9602481Y3463142D02*
X9602481Y891714D01*
X9602481Y891714D02*
X9459624Y606000D01*
X9459624Y606000D02*
X9173909Y463142D01*
X9173909Y463142D02*
X8888195Y463142D01*
X6745338Y606000D02*
X7031052Y463142D01*
X7031052Y463142D02*
X7602481Y463142D01*
X7602481Y463142D02*
X7888195Y606000D01*
X7888195Y606000D02*
X8031052Y891714D01*
X8031052Y891714D02*
X8031052Y2034571D01*
X8031052Y2034571D02*
X7888195Y2320285D01*
X7888195Y2320285D02*
X7602481Y2463142D01*
X7602481Y2463142D02*
X7031052Y2463142D01*
X7031052Y2463142D02*
X6745338Y2320285D01*
X6745338Y2320285D02*
X6602481Y2034571D01*
X6602481Y2034571D02*
X6602481Y1748857D01*
X6602481Y1748857D02*
X8031052Y1463142D01*
X5316766Y463142D02*
X5316766Y2463142D01*
X5316766Y1891714D02*
X5173909Y2177428D01*
X5173909Y2177428D02*
X5031052Y2320285D01*
X5031052Y2320285D02*
X4745337Y2463142D01*
X4745337Y2463142D02*
X4459623Y2463142D01*
X3888194Y2463142D02*
X2745337Y2463142D01*
X3459623Y463142D02*
X3459623Y3034571D01*
X3459623Y3034571D02*
X3316766Y3320285D01*
X3316766Y3320285D02*
X3031051Y3463142D01*
X3031051Y3463142D02*
X2745337Y3463142D01*
X459623Y463142D02*
X459623Y2034571D01*
X459623Y2034571D02*
X602480Y2320285D01*
X602480Y2320285D02*
X888194Y2463142D01*
X888194Y2463142D02*
X1459623Y2463142D01*
X1459623Y2463142D02*
X1745337Y2320285D01*
X459623Y606000D02*
X745337Y463142D01*
X745337Y463142D02*
X1459623Y463142D01*
X1459623Y463142D02*
X1745337Y606000D01*
X1745337Y606000D02*
X1888194Y891714D01*
X1888194Y891714D02*
X1888194Y1177428D01*
X1888194Y1177428D02*
X1745337Y1463142D01*
X1745337Y1463142D02*
X1459623Y1606000D01*
X1459623Y1606000D02*
X745337Y1606000D01*
X745337Y1606000D02*
X459623Y1748857D01*
X-2254663Y606000D02*
X-1968948Y463142D01*
X-1968948Y463142D02*
X-1397520Y463142D01*
X-1397520Y463142D02*
X-1111805Y606000D01*
X-1111805Y606000D02*
X-968948Y748857D01*
X-968948Y748857D02*
X-826091Y1034571D01*
X-826091Y1034571D02*
X-826091Y1891714D01*
X-826091Y1891714D02*
X-968948Y2177428D01*
X-968948Y2177428D02*
X-1111805Y2320285D01*
X-1111805Y2320285D02*
X-1397520Y2463142D01*
X-1397520Y2463142D02*
X-1968948Y2463142D01*
X-1968948Y2463142D02*
X-2254663Y2320285D01*
X-4683234Y606000D02*
X-4397520Y463142D01*
X-4397520Y463142D02*
X-3826092Y463142D01*
X-3826092Y463142D02*
X-3540377Y606000D01*
X-3540377Y606000D02*
X-3397520Y891714D01*
X-3397520Y891714D02*
X-3397520Y2034571D01*
X-3397520Y2034571D02*
X-3540377Y2320285D01*
X-3540377Y2320285D02*
X-3826092Y2463142D01*
X-3826092Y2463142D02*
X-4397520Y2463142D01*
X-4397520Y2463142D02*
X-4683234Y2320285D01*
X-4683234Y2320285D02*
X-4826092Y2034571D01*
X-4826092Y2034571D02*
X-4826092Y1748857D01*
X-4826092Y1748857D02*
X-3397520Y1463142D01*
X-7968949Y3463142D02*
X-9683235Y3463142D01*
X-8826092Y463142D02*
X-8826092Y3463142D01*
X-11826091Y606000D02*
X-11540377Y463142D01*
X-11540377Y463142D02*
X-10968949Y463142D01*
X-10968949Y463142D02*
X-10683234Y606000D01*
X-10683234Y606000D02*
X-10540377Y891714D01*
X-10540377Y891714D02*
X-10540377Y2034571D01*
X-10540377Y2034571D02*
X-10683234Y2320285D01*
X-10683234Y2320285D02*
X-10968949Y2463142D01*
X-10968949Y2463142D02*
X-11540377Y2463142D01*
X-11540377Y2463142D02*
X-11826091Y2320285D01*
X-11826091Y2320285D02*
X-11968949Y2034571D01*
X-11968949Y2034571D02*
X-11968949Y1748857D01*
X-11968949Y1748857D02*
X-10540377Y1463142D01*
X-14540378Y606000D02*
X-14254663Y463142D01*
X-14254663Y463142D02*
X-13683235Y463142D01*
X-13683235Y463142D02*
X-13397520Y606000D01*
X-13397520Y606000D02*
X-13254663Y748857D01*
X-13254663Y748857D02*
X-13111806Y1034571D01*
X-13111806Y1034571D02*
X-13111806Y1891714D01*
X-13111806Y1891714D02*
X-13254663Y2177428D01*
X-13254663Y2177428D02*
X-13397520Y2320285D01*
X-13397520Y2320285D02*
X-13683235Y2463142D01*
X-13683235Y2463142D02*
X-14254663Y2463142D01*
X-14254663Y2463142D02*
X-14540378Y2320285D01*
X-15826092Y463142D02*
X-15826092Y3463142D01*
X-17111807Y463142D02*
X-17111807Y2034571D01*
X-17111807Y2034571D02*
X-16968949Y2320285D01*
X-16968949Y2320285D02*
X-16683235Y2463142D01*
X-16683235Y2463142D02*
X-16254664Y2463142D01*
X-16254664Y2463142D02*
X-15968949Y2320285D01*
X-15968949Y2320285D02*
X-15826092Y2177428D01*
X-18540378Y2463142D02*
X-18540378Y463142D01*
X-18540378Y2177428D02*
X-18683235Y2320285D01*
X-18683235Y2320285D02*
X-18968950Y2463142D01*
X-18968950Y2463142D02*
X-19397521Y2463142D01*
X-19397521Y2463142D02*
X-19683235Y2320285D01*
X-19683235Y2320285D02*
X-19826093Y2034571D01*
X-19826093Y2034571D02*
X-19826093Y463142D01*
X-21683236Y463142D02*
X-21397521Y606000D01*
X-21397521Y606000D02*
X-21254664Y748857D01*
X-21254664Y748857D02*
X-21111807Y1034571D01*
X-21111807Y1034571D02*
X-21111807Y1891714D01*
X-21111807Y1891714D02*
X-21254664Y2177428D01*
X-21254664Y2177428D02*
X-21397521Y2320285D01*
X-21397521Y2320285D02*
X-21683236Y2463142D01*
X-21683236Y2463142D02*
X-22111807Y2463142D01*
X-22111807Y2463142D02*
X-22397521Y2320285D01*
X-22397521Y2320285D02*
X-22540379Y2177428D01*
X-22540379Y2177428D02*
X-22683236Y1891714D01*
X-22683236Y1891714D02*
X-22683236Y1034571D01*
X-22683236Y1034571D02*
X-22540379Y748857D01*
X-22540379Y748857D02*
X-22397521Y606000D01*
X-22397521Y606000D02*
X-22111807Y463142D01*
X-22111807Y463142D02*
X-21683236Y463142D01*
X-24397522Y463142D02*
X-24111807Y606000D01*
X-24111807Y606000D02*
X-23968950Y891714D01*
X-23968950Y891714D02*
X-23968950Y3463142D01*
X-25968951Y463142D02*
X-25683236Y606000D01*
X-25683236Y606000D02*
X-25540379Y748857D01*
X-25540379Y748857D02*
X-25397522Y1034571D01*
X-25397522Y1034571D02*
X-25397522Y1891714D01*
X-25397522Y1891714D02*
X-25540379Y2177428D01*
X-25540379Y2177428D02*
X-25683236Y2320285D01*
X-25683236Y2320285D02*
X-25968951Y2463142D01*
X-25968951Y2463142D02*
X-26397522Y2463142D01*
X-26397522Y2463142D02*
X-26683236Y2320285D01*
X-26683236Y2320285D02*
X-26826094Y2177428D01*
X-26826094Y2177428D02*
X-26968951Y1891714D01*
X-26968951Y1891714D02*
X-26968951Y1034571D01*
X-26968951Y1034571D02*
X-26826094Y748857D01*
X-26826094Y748857D02*
X-26683236Y606000D01*
X-26683236Y606000D02*
X-26397522Y463142D01*
X-26397522Y463142D02*
X-25968951Y463142D01*
X-29540380Y2463142D02*
X-29540380Y34571D01*
X-29540380Y34571D02*
X-29397522Y-251142D01*
X-29397522Y-251142D02*
X-29254665Y-394000D01*
X-29254665Y-394000D02*
X-28968951Y-536857D01*
X-28968951Y-536857D02*
X-28540380Y-536857D01*
X-28540380Y-536857D02*
X-28254665Y-394000D01*
X-29540380Y606000D02*
X-29254665Y463142D01*
X-29254665Y463142D02*
X-28683237Y463142D01*
X-28683237Y463142D02*
X-28397522Y606000D01*
X-28397522Y606000D02*
X-28254665Y748857D01*
X-28254665Y748857D02*
X-28111808Y1034571D01*
X-28111808Y1034571D02*
X-28111808Y1891714D01*
X-28111808Y1891714D02*
X-28254665Y2177428D01*
X-28254665Y2177428D02*
X-28397522Y2320285D01*
X-28397522Y2320285D02*
X-28683237Y2463142D01*
X-28683237Y2463142D02*
X-29254665Y2463142D01*
X-29254665Y2463142D02*
X-29540380Y2320285D01*
X-30683237Y2463142D02*
X-31397523Y463142D01*
X-32111808Y2463142D02*
X-31397523Y463142D01*
X-31397523Y463142D02*
X-31111808Y-251142D01*
X-31111808Y-251142D02*
X-30968951Y-394000D01*
X-30968951Y-394000D02*
X-30683237Y-536857D01*
X-36968951Y463142D02*
X-35540379Y463142D01*
X-35540379Y463142D02*
X-35540379Y3463142D01*
X-37826093Y1320285D02*
X-39254665Y1320285D01*
X-37540379Y463142D02*
X-38540379Y3463142D01*
X-38540379Y3463142D02*
X-39540379Y463142D01*
X-41540379Y2034571D02*
X-41968951Y1891714D01*
X-41968951Y1891714D02*
X-42111808Y1748857D01*
X-42111808Y1748857D02*
X-42254665Y1463142D01*
X-42254665Y1463142D02*
X-42254665Y1034571D01*
X-42254665Y1034571D02*
X-42111808Y748857D01*
X-42111808Y748857D02*
X-41968951Y606000D01*
X-41968951Y606000D02*
X-41683236Y463142D01*
X-41683236Y463142D02*
X-40540379Y463142D01*
X-40540379Y463142D02*
X-40540379Y3463142D01*
X-40540379Y3463142D02*
X-41540379Y3463142D01*
X-41540379Y3463142D02*
X-41826094Y3320285D01*
X-41826094Y3320285D02*
X-41968951Y3177428D01*
X-41968951Y3177428D02*
X-42111808Y2891714D01*
X-42111808Y2891714D02*
X-42111808Y2606000D01*
X-42111808Y2606000D02*
X-41968951Y2320285D01*
X-41968951Y2320285D02*
X-41826094Y2177428D01*
X-41826094Y2177428D02*
X-41540379Y2034571D01*
X-41540379Y2034571D02*
X-40540379Y2034571D01*
D11*
X12309725Y9141523D02*
X12309725Y13141523D01*
X12309725Y13141523D02*
X10976391Y10284380D01*
X10976391Y10284380D02*
X9643058Y13141523D01*
X9643058Y13141523D02*
X9643058Y9141523D01*
X6024010Y9141523D02*
X6024010Y11236761D01*
X6024010Y11236761D02*
X6214486Y11617714D01*
X6214486Y11617714D02*
X6595438Y11808190D01*
X6595438Y11808190D02*
X7357343Y11808190D01*
X7357343Y11808190D02*
X7738296Y11617714D01*
X6024010Y9332000D02*
X6404962Y9141523D01*
X6404962Y9141523D02*
X7357343Y9141523D01*
X7357343Y9141523D02*
X7738296Y9332000D01*
X7738296Y9332000D02*
X7928772Y9712952D01*
X7928772Y9712952D02*
X7928772Y10093904D01*
X7928772Y10093904D02*
X7738296Y10474857D01*
X7738296Y10474857D02*
X7357343Y10665333D01*
X7357343Y10665333D02*
X6404962Y10665333D01*
X6404962Y10665333D02*
X6024010Y10855809D01*
X4119248Y9141523D02*
X4119248Y13141523D01*
X3738295Y10665333D02*
X2595438Y9141523D01*
X2595438Y11808190D02*
X4119248Y10284380D01*
X-642656Y9332000D02*
X-261704Y9141523D01*
X-261704Y9141523D02*
X500200Y9141523D01*
X500200Y9141523D02*
X881153Y9332000D01*
X881153Y9332000D02*
X1071629Y9712952D01*
X1071629Y9712952D02*
X1071629Y11236761D01*
X1071629Y11236761D02*
X881153Y11617714D01*
X881153Y11617714D02*
X500200Y11808190D01*
X500200Y11808190D02*
X-261704Y11808190D01*
X-261704Y11808190D02*
X-642656Y11617714D01*
X-642656Y11617714D02*
X-833132Y11236761D01*
X-833132Y11236761D02*
X-833132Y10855809D01*
X-833132Y10855809D02*
X1071629Y10474857D01*
X-5404560Y9332000D02*
X-5975989Y9141523D01*
X-5975989Y9141523D02*
X-6928370Y9141523D01*
X-6928370Y9141523D02*
X-7309322Y9332000D01*
X-7309322Y9332000D02*
X-7499798Y9522476D01*
X-7499798Y9522476D02*
X-7690275Y9903428D01*
X-7690275Y9903428D02*
X-7690275Y10284380D01*
X-7690275Y10284380D02*
X-7499798Y10665333D01*
X-7499798Y10665333D02*
X-7309322Y10855809D01*
X-7309322Y10855809D02*
X-6928370Y11046285D01*
X-6928370Y11046285D02*
X-6166465Y11236761D01*
X-6166465Y11236761D02*
X-5785513Y11427238D01*
X-5785513Y11427238D02*
X-5595036Y11617714D01*
X-5595036Y11617714D02*
X-5404560Y11998666D01*
X-5404560Y11998666D02*
X-5404560Y12379619D01*
X-5404560Y12379619D02*
X-5595036Y12760571D01*
X-5595036Y12760571D02*
X-5785513Y12951047D01*
X-5785513Y12951047D02*
X-6166465Y13141523D01*
X-6166465Y13141523D02*
X-7118846Y13141523D01*
X-7118846Y13141523D02*
X-7690275Y12951047D01*
X-10928370Y9332000D02*
X-10547418Y9141523D01*
X-10547418Y9141523D02*
X-9785513Y9141523D01*
X-9785513Y9141523D02*
X-9404560Y9332000D01*
X-9404560Y9332000D02*
X-9214084Y9712952D01*
X-9214084Y9712952D02*
X-9214084Y11236761D01*
X-9214084Y11236761D02*
X-9404560Y11617714D01*
X-9404560Y11617714D02*
X-9785513Y11808190D01*
X-9785513Y11808190D02*
X-10547418Y11808190D01*
X-10547418Y11808190D02*
X-10928370Y11617714D01*
X-10928370Y11617714D02*
X-11118846Y11236761D01*
X-11118846Y11236761D02*
X-11118846Y10855809D01*
X-11118846Y10855809D02*
X-9214084Y10474857D01*
X-12833131Y11808190D02*
X-12833131Y9141523D01*
X-12833131Y11427238D02*
X-13023608Y11617714D01*
X-13023608Y11617714D02*
X-13404560Y11808190D01*
X-13404560Y11808190D02*
X-13975989Y11808190D01*
X-13975989Y11808190D02*
X-14356941Y11617714D01*
X-14356941Y11617714D02*
X-14547417Y11236761D01*
X-14547417Y11236761D02*
X-14547417Y9141523D01*
X-16261703Y9332000D02*
X-16642656Y9141523D01*
X-16642656Y9141523D02*
X-17404560Y9141523D01*
X-17404560Y9141523D02*
X-17785513Y9332000D01*
X-17785513Y9332000D02*
X-17975989Y9712952D01*
X-17975989Y9712952D02*
X-17975989Y9903428D01*
X-17975989Y9903428D02*
X-17785513Y10284380D01*
X-17785513Y10284380D02*
X-17404560Y10474857D01*
X-17404560Y10474857D02*
X-16833132Y10474857D01*
X-16833132Y10474857D02*
X-16452179Y10665333D01*
X-16452179Y10665333D02*
X-16261703Y11046285D01*
X-16261703Y11046285D02*
X-16261703Y11236761D01*
X-16261703Y11236761D02*
X-16452179Y11617714D01*
X-16452179Y11617714D02*
X-16833132Y11808190D01*
X-16833132Y11808190D02*
X-17404560Y11808190D01*
X-17404560Y11808190D02*
X-17785513Y11617714D01*
X-21214084Y9332000D02*
X-20833132Y9141523D01*
X-20833132Y9141523D02*
X-20071227Y9141523D01*
X-20071227Y9141523D02*
X-19690274Y9332000D01*
X-19690274Y9332000D02*
X-19499798Y9712952D01*
X-19499798Y9712952D02*
X-19499798Y11236761D01*
X-19499798Y11236761D02*
X-19690274Y11617714D01*
X-19690274Y11617714D02*
X-20071227Y11808190D01*
X-20071227Y11808190D02*
X-20833132Y11808190D01*
X-20833132Y11808190D02*
X-21214084Y11617714D01*
X-21214084Y11617714D02*
X-21404560Y11236761D01*
X-21404560Y11236761D02*
X-21404560Y10855809D01*
X-21404560Y10855809D02*
X-19499798Y10474857D01*
D12*
%TO.C,G\u002A\u002A\u002A*%
G36*
X36929416Y3519201D02*
G01*
X36972147Y3518260D01*
X37004547Y3516521D01*
X37027593Y3513875D01*
X37042263Y3510208D01*
X37049531Y3505409D01*
X37050376Y3499367D01*
X37047685Y3490652D01*
X37042057Y3472526D01*
X37034414Y3447958D01*
X37025606Y3419686D01*
X37017218Y3392616D01*
X37010279Y3369912D01*
X37005589Y3354206D01*
X37003866Y3347873D01*
X37002101Y3347504D01*
X36990283Y3346673D01*
X36968821Y3345699D01*
X36939443Y3344649D01*
X36903877Y3343588D01*
X36863849Y3342580D01*
X36848163Y3342186D01*
X36805382Y3340799D01*
X36765108Y3339066D01*
X36729790Y3337118D01*
X36701880Y3335082D01*
X36683827Y3333089D01*
X36665360Y3330223D01*
X36635054Y3325601D01*
X36608645Y3321658D01*
X36593448Y3319084D01*
X36577186Y3315361D01*
X36569153Y3312181D01*
X36568495Y3311554D01*
X36558653Y3308249D01*
X36551786Y3315559D01*
X36551621Y3316230D01*
X36550366Y3326784D01*
X36548799Y3346641D01*
X36547104Y3373233D01*
X36545464Y3403989D01*
X36545015Y3413291D01*
X36543679Y3443322D01*
X36543261Y3463657D01*
X36544010Y3476373D01*
X36546176Y3483547D01*
X36550009Y3487255D01*
X36555759Y3489575D01*
X36565326Y3492513D01*
X36598989Y3499953D01*
X36642341Y3506451D01*
X36693481Y3511828D01*
X36750508Y3515907D01*
X36811521Y3518509D01*
X36874619Y3519456D01*
X36875378Y3519456D01*
X36929416Y3519201D01*
G37*
G36*
X37470391Y3408532D02*
G01*
X37472400Y3407871D01*
X37493903Y3399454D01*
X37523083Y3386449D01*
X37557252Y3370191D01*
X37593724Y3352016D01*
X37629815Y3333258D01*
X37662836Y3315252D01*
X37690103Y3299334D01*
X37700095Y3293222D01*
X37723776Y3278926D01*
X37744102Y3266896D01*
X37757522Y3259246D01*
X37770953Y3251335D01*
X37786175Y3239583D01*
X37791653Y3230521D01*
X37791457Y3229736D01*
X37787253Y3220608D01*
X37778403Y3203397D01*
X37766010Y3180209D01*
X37751176Y3153149D01*
X37746979Y3145609D01*
X37732418Y3119922D01*
X37720229Y3099136D01*
X37711587Y3085222D01*
X37707664Y3080146D01*
X37704464Y3081551D01*
X37693377Y3088251D01*
X37677793Y3098610D01*
X37667379Y3105451D01*
X37652843Y3113810D01*
X37644373Y3117074D01*
X37642548Y3117287D01*
X37637789Y3122482D01*
X37637759Y3122799D01*
X37632015Y3128792D01*
X37619325Y3135538D01*
X37618285Y3135977D01*
X37605944Y3142771D01*
X37600861Y3148594D01*
X37598558Y3151734D01*
X37588552Y3154001D01*
X37581408Y3154863D01*
X37576221Y3158617D01*
X37572535Y3162378D01*
X37560272Y3169781D01*
X37542392Y3178620D01*
X37527105Y3186078D01*
X37513724Y3193838D01*
X37508564Y3198622D01*
X37506254Y3201300D01*
X37496233Y3203238D01*
X37489079Y3204392D01*
X37483924Y3209393D01*
X37483202Y3211899D01*
X37475638Y3215547D01*
X37474876Y3215582D01*
X37463249Y3218695D01*
X37447764Y3225319D01*
X37436475Y3231887D01*
X37430674Y3240566D01*
X37431401Y3254553D01*
X37432326Y3260161D01*
X37435449Y3279186D01*
X37439607Y3304601D01*
X37444159Y3332485D01*
X37444229Y3332914D01*
X37449614Y3365265D01*
X37453752Y3387292D01*
X37457272Y3400812D01*
X37460800Y3407646D01*
X37464964Y3409613D01*
X37470391Y3408532D01*
G37*
G36*
X38128650Y2919718D02*
G01*
X38135849Y2909673D01*
X38143869Y2899262D01*
X38155001Y2885647D01*
X38171692Y2865757D01*
X38172929Y2864266D01*
X38181872Y2851638D01*
X38185540Y2843015D01*
X38188361Y2836963D01*
X38197856Y2827808D01*
X38205711Y2820961D01*
X38210166Y2813813D01*
X38210452Y2812638D01*
X38215309Y2802961D01*
X38224930Y2786660D01*
X38237695Y2766517D01*
X38240699Y2761844D01*
X38254487Y2739098D01*
X38270151Y2711672D01*
X38286545Y2681758D01*
X38302525Y2651550D01*
X38316946Y2623240D01*
X38328664Y2599021D01*
X38336534Y2581087D01*
X38339412Y2571630D01*
X38339980Y2568088D01*
X38345567Y2563161D01*
X38348424Y2562089D01*
X38351721Y2553845D01*
X38352457Y2547735D01*
X38357158Y2533843D01*
X38363040Y2521289D01*
X38370185Y2504692D01*
X38376948Y2488943D01*
X38383174Y2475603D01*
X38383898Y2473583D01*
X38382800Y2467948D01*
X38376516Y2460486D01*
X38363713Y2450056D01*
X38343057Y2435516D01*
X38313216Y2415726D01*
X38301510Y2408108D01*
X38275862Y2391671D01*
X38254662Y2378431D01*
X38239850Y2369589D01*
X38233363Y2366343D01*
X38229243Y2370946D01*
X38225191Y2383139D01*
X38221525Y2396900D01*
X38215018Y2415450D01*
X38210018Y2427670D01*
X38204062Y2443146D01*
X38202278Y2447680D01*
X38195291Y2463536D01*
X38186421Y2482194D01*
X38182375Y2490819D01*
X38175824Y2507208D01*
X38173238Y2517583D01*
X38172640Y2521291D01*
X38167084Y2526233D01*
X38163506Y2528541D01*
X38160929Y2538542D01*
X38160070Y2545697D01*
X38156313Y2550980D01*
X38155317Y2551575D01*
X38149469Y2559894D01*
X38140590Y2575963D01*
X38130175Y2597140D01*
X38126720Y2604406D01*
X38116638Y2624188D01*
X38108572Y2637986D01*
X38104018Y2643170D01*
X38102521Y2643555D01*
X38099383Y2650313D01*
X38098651Y2652923D01*
X38092640Y2664659D01*
X38081878Y2682511D01*
X38067954Y2703777D01*
X38036525Y2750098D01*
X38050564Y2784337D01*
X38054455Y2793636D01*
X38065210Y2818457D01*
X38078191Y2847635D01*
X38091392Y2876636D01*
X38118182Y2934696D01*
X38128650Y2919718D01*
G37*
G36*
X37675464Y4285056D02*
G01*
X37683948Y4280292D01*
X37689524Y4276460D01*
X37702412Y4274137D01*
X37712370Y4272790D01*
X37720876Y4267983D01*
X37726671Y4264097D01*
X37739703Y4261828D01*
X37749464Y4260611D01*
X37754726Y4256786D01*
X37756980Y4254283D01*
X37768139Y4248976D01*
X37785499Y4243364D01*
X37797029Y4239855D01*
X37810871Y4234257D01*
X37816272Y4229942D01*
X37817335Y4227610D01*
X37825587Y4224900D01*
X37831666Y4224183D01*
X37845590Y4219550D01*
X37847940Y4218397D01*
X37863286Y4211242D01*
X37885585Y4201145D01*
X37911359Y4189652D01*
X37937130Y4178304D01*
X37959421Y4168647D01*
X37974753Y4162224D01*
X37977106Y4161247D01*
X37989644Y4154692D01*
X37994755Y4149543D01*
X37996823Y4146920D01*
X38006551Y4144891D01*
X38013355Y4144130D01*
X38020399Y4140275D01*
X38023896Y4137076D01*
X38035951Y4129542D01*
X38053224Y4120355D01*
X38065946Y4113888D01*
X38080258Y4106179D01*
X38087074Y4101892D01*
X38095102Y4095885D01*
X38109897Y4086893D01*
X38125882Y4078282D01*
X38137849Y4073016D01*
X38143597Y4070348D01*
X38148620Y4064163D01*
X38150923Y4061006D01*
X38160929Y4058726D01*
X38168074Y4057770D01*
X38173238Y4053612D01*
X38173239Y4053550D01*
X38178277Y4047414D01*
X38190163Y4039880D01*
X38213711Y4026860D01*
X38234116Y4013540D01*
X38248075Y4002102D01*
X38253248Y3994239D01*
X38250199Y3986571D01*
X38240989Y3975685D01*
X38235595Y3969848D01*
X38223508Y3954660D01*
X38208097Y3933841D01*
X38191414Y3910108D01*
X38178936Y3892266D01*
X38164982Y3873312D01*
X38154611Y3860397D01*
X38149442Y3855625D01*
X38143334Y3858311D01*
X38132594Y3866395D01*
X38129345Y3869162D01*
X38110538Y3882883D01*
X38090000Y3895248D01*
X38073226Y3902882D01*
X38067465Y3905446D01*
X38062455Y3911016D01*
X38060767Y3914097D01*
X38051685Y3919258D01*
X38044566Y3922374D01*
X38028804Y3930778D01*
X38010141Y3941789D01*
X37996599Y3949878D01*
X37979588Y3959249D01*
X37968598Y3964320D01*
X37962841Y3967051D01*
X37957827Y3973280D01*
X37956731Y3975821D01*
X37948429Y3978717D01*
X37947690Y3978766D01*
X37936747Y3982113D01*
X37918910Y3989676D01*
X37897653Y3999998D01*
X37884823Y4006527D01*
X37851559Y4022836D01*
X37820704Y4037142D01*
X37794378Y4048513D01*
X37774704Y4056018D01*
X37763804Y4058726D01*
X37759716Y4059270D01*
X37754726Y4063768D01*
X37752472Y4066271D01*
X37741313Y4071578D01*
X37723953Y4077190D01*
X37712423Y4080699D01*
X37698580Y4086297D01*
X37693180Y4090612D01*
X37689365Y4093926D01*
X37677793Y4095654D01*
X37667674Y4097182D01*
X37662407Y4101809D01*
X37658587Y4105856D01*
X37647021Y4107963D01*
X37636940Y4108344D01*
X37631755Y4109502D01*
X37631871Y4110271D01*
X37633501Y4119672D01*
X37636644Y4137329D01*
X37640772Y4160277D01*
X37640880Y4160876D01*
X37645341Y4190818D01*
X37648574Y4222077D01*
X37649883Y4247980D01*
X37649902Y4251029D01*
X37650427Y4270770D01*
X37652390Y4281366D01*
X37656915Y4285648D01*
X37665121Y4286446D01*
X37675464Y4285056D01*
G37*
G36*
X38425101Y3872752D02*
G01*
X38432683Y3867934D01*
X38436769Y3866907D01*
X38446693Y3860241D01*
X38448122Y3858863D01*
X38470187Y3838736D01*
X38497055Y3815771D01*
X38523963Y3794048D01*
X38534185Y3785429D01*
X38553749Y3767538D01*
X38578644Y3743826D01*
X38607098Y3716072D01*
X38637339Y3686051D01*
X38667592Y3655541D01*
X38696087Y3626319D01*
X38721051Y3600161D01*
X38740710Y3578845D01*
X38753294Y3564146D01*
X38762618Y3552461D01*
X38789678Y3520215D01*
X38816596Y3490102D01*
X38818298Y3488150D01*
X38827099Y3476850D01*
X38838049Y3461731D01*
X38847666Y3448230D01*
X38857156Y3435686D01*
X38868835Y3421251D01*
X38885625Y3401207D01*
X38886982Y3399574D01*
X38895844Y3387492D01*
X38899472Y3379903D01*
X38899568Y3379264D01*
X38904583Y3371164D01*
X38914866Y3359621D01*
X38916531Y3357925D01*
X38926275Y3346415D01*
X38930253Y3338799D01*
X38931983Y3333920D01*
X38939549Y3324068D01*
X38942487Y3320777D01*
X38953430Y3306094D01*
X38967944Y3284585D01*
X38984262Y3259050D01*
X39000620Y3232292D01*
X39015250Y3207112D01*
X39026387Y3186313D01*
X39033957Y3172211D01*
X39042472Y3159073D01*
X39047911Y3154001D01*
X39051066Y3151698D01*
X39053345Y3141692D01*
X39054499Y3134538D01*
X39059499Y3129383D01*
X39062331Y3128342D01*
X39065654Y3120151D01*
X39066348Y3115904D01*
X39071808Y3110919D01*
X39075386Y3108611D01*
X39077963Y3098610D01*
X39079117Y3091456D01*
X39084118Y3086301D01*
X39087695Y3083993D01*
X39090272Y3073992D01*
X39091426Y3066837D01*
X39096427Y3061683D01*
X39100004Y3059374D01*
X39102581Y3049373D01*
X39103443Y3042227D01*
X39107197Y3037016D01*
X39112122Y3032875D01*
X39118908Y3021390D01*
X39124729Y3007405D01*
X39127200Y2995832D01*
X39127688Y2992716D01*
X39133354Y2987827D01*
X39136932Y2985519D01*
X39139509Y2975518D01*
X39140663Y2968364D01*
X39145664Y2963209D01*
X39149141Y2961132D01*
X39151818Y2951413D01*
X39152711Y2944600D01*
X39157224Y2937565D01*
X39162203Y2930698D01*
X39166591Y2917050D01*
X39170552Y2898586D01*
X39131951Y2897968D01*
X39113532Y2896906D01*
X39083541Y2890975D01*
X39050267Y2878593D01*
X39046192Y2876823D01*
X39025803Y2868095D01*
X39010615Y2861803D01*
X39003660Y2859209D01*
X39002989Y2859395D01*
X38997509Y2866540D01*
X38988817Y2882335D01*
X38978077Y2904536D01*
X38966454Y2930897D01*
X38965387Y2933346D01*
X38958601Y2945820D01*
X38953369Y2950900D01*
X38950670Y2953199D01*
X38948717Y2963209D01*
X38947563Y2970364D01*
X38942562Y2975518D01*
X38938985Y2977826D01*
X38936407Y2987827D01*
X38935253Y2994982D01*
X38930253Y3000137D01*
X38926676Y3002445D01*
X38924098Y3012446D01*
X38923081Y3019594D01*
X38918662Y3024755D01*
X38915229Y3026428D01*
X38909809Y3035526D01*
X38909690Y3035896D01*
X38903756Y3049405D01*
X38894938Y3065099D01*
X38885942Y3078536D01*
X38879478Y3085275D01*
X38878685Y3085717D01*
X38874862Y3093398D01*
X38873528Y3097596D01*
X38866834Y3110067D01*
X38856398Y3126306D01*
X38849380Y3136772D01*
X38841144Y3150025D01*
X38837934Y3156677D01*
X38837741Y3157370D01*
X38833026Y3165702D01*
X38823285Y3180750D01*
X38810238Y3199836D01*
X38807203Y3204217D01*
X38794668Y3223245D01*
X38785865Y3238132D01*
X38782543Y3245967D01*
X38782366Y3247711D01*
X38777715Y3252475D01*
X38777501Y3252490D01*
X38771104Y3257687D01*
X38762710Y3269400D01*
X38760079Y3273659D01*
X38737652Y3304673D01*
X38707149Y3340054D01*
X38703586Y3344029D01*
X38694050Y3356100D01*
X38690224Y3363406D01*
X38688319Y3367420D01*
X38679939Y3378527D01*
X38667144Y3393010D01*
X38659314Y3401547D01*
X38642329Y3421067D01*
X38628678Y3437959D01*
X38624902Y3442520D01*
X38612005Y3456720D01*
X38592596Y3477209D01*
X38568139Y3502471D01*
X38540093Y3530990D01*
X38509921Y3561246D01*
X38406550Y3664187D01*
X38412922Y3736826D01*
X38414997Y3762103D01*
X38417348Y3795284D01*
X38419055Y3824814D01*
X38419844Y3846393D01*
X38420483Y3863048D01*
X38421813Y3874248D01*
X38423498Y3875627D01*
X38425101Y3872752D01*
G37*
G36*
X38476507Y2042929D02*
G01*
X38477030Y2041424D01*
X38478402Y2029049D01*
X38479172Y2007052D01*
X38479389Y1977496D01*
X38479100Y1942444D01*
X38478353Y1903961D01*
X38477193Y1864109D01*
X38475669Y1824953D01*
X38473829Y1788555D01*
X38471719Y1756980D01*
X38469386Y1732291D01*
X38465846Y1702947D01*
X38460438Y1661696D01*
X38455190Y1627544D01*
X38449534Y1597257D01*
X38442899Y1567601D01*
X38434717Y1535344D01*
X38429490Y1515127D01*
X38422724Y1487622D01*
X38417545Y1464961D01*
X38414780Y1450661D01*
X38414633Y1449672D01*
X38411007Y1435122D01*
X38406433Y1427218D01*
X38402966Y1421659D01*
X38400958Y1408811D01*
X38399470Y1399044D01*
X38394803Y1393788D01*
X38391211Y1391442D01*
X38388649Y1381396D01*
X38387648Y1372655D01*
X38382494Y1356777D01*
X38378391Y1348626D01*
X38370185Y1332326D01*
X38366832Y1323649D01*
X38364030Y1307707D01*
X38362865Y1300473D01*
X38357876Y1295315D01*
X38354299Y1293007D01*
X38351721Y1283006D01*
X38350567Y1275851D01*
X38345567Y1270696D01*
X38342795Y1269721D01*
X38339412Y1261652D01*
X38339190Y1259549D01*
X38334977Y1246817D01*
X38327103Y1230692D01*
X38324743Y1226332D01*
X38317649Y1210777D01*
X38314794Y1200244D01*
X38314420Y1196746D01*
X38310126Y1189661D01*
X38309793Y1189455D01*
X38304293Y1182255D01*
X38295219Y1167334D01*
X38284356Y1147605D01*
X38270962Y1123352D01*
X38253437Y1093466D01*
X38236710Y1066517D01*
X38233585Y1061635D01*
X38221673Y1042073D01*
X38213317Y1026814D01*
X38210166Y1018819D01*
X38209975Y1016980D01*
X38205338Y1012204D01*
X38204810Y1012115D01*
X38198246Y1006232D01*
X38189736Y993964D01*
X38189464Y993505D01*
X38179779Y978495D01*
X38171484Y967655D01*
X38166871Y962328D01*
X38155794Y948782D01*
X38142550Y932042D01*
X38133416Y920392D01*
X38093958Y872193D01*
X38054378Y827840D01*
X38009766Y781782D01*
X37988571Y760852D01*
X37946040Y720910D01*
X37903806Y684500D01*
X37856994Y647332D01*
X37840023Y633873D01*
X37823144Y619856D01*
X37821731Y618658D01*
X37809561Y609688D01*
X37801607Y606008D01*
X37796043Y603646D01*
X37786204Y595230D01*
X37773762Y584522D01*
X37757786Y573853D01*
X37756206Y572954D01*
X37742602Y566016D01*
X37734234Y563082D01*
X37731989Y568001D01*
X37731712Y582864D01*
X37733306Y605480D01*
X37736458Y633632D01*
X37740856Y665100D01*
X37746190Y697667D01*
X37752147Y729115D01*
X37758415Y757226D01*
X37764683Y779780D01*
X37774559Y801778D01*
X37793658Y822656D01*
X37801612Y828932D01*
X37819094Y844484D01*
X37841595Y865709D01*
X37867117Y890602D01*
X37893664Y917158D01*
X37919237Y943371D01*
X37941840Y967235D01*
X37959476Y986744D01*
X37970147Y999894D01*
X37972666Y1003428D01*
X37985916Y1020752D01*
X37997698Y1034510D01*
X38002674Y1039817D01*
X38017334Y1056477D01*
X38027732Y1069837D01*
X38031682Y1077160D01*
X38034656Y1082767D01*
X38043196Y1095552D01*
X38055352Y1112478D01*
X38066366Y1128010D01*
X38080247Y1149199D01*
X38090061Y1166068D01*
X38092148Y1170065D01*
X38099885Y1183656D01*
X38104941Y1190687D01*
X38107789Y1194556D01*
X38114968Y1207055D01*
X38124001Y1224537D01*
X38130426Y1237241D01*
X38138106Y1251566D01*
X38142382Y1258387D01*
X38147482Y1265645D01*
X38155574Y1280559D01*
X38163976Y1298170D01*
X38170570Y1314006D01*
X38173238Y1323592D01*
X38173836Y1327300D01*
X38179393Y1332242D01*
X38182250Y1333314D01*
X38185547Y1341558D01*
X38186631Y1348973D01*
X38191702Y1363099D01*
X38195805Y1371250D01*
X38204011Y1387550D01*
X38207488Y1396098D01*
X38210166Y1409091D01*
X38210874Y1413416D01*
X38216320Y1418407D01*
X38219703Y1420287D01*
X38222475Y1429752D01*
X38223783Y1438577D01*
X38228332Y1456321D01*
X38235015Y1477450D01*
X38236883Y1482945D01*
X38249508Y1523780D01*
X38261583Y1568517D01*
X38271800Y1612033D01*
X38278852Y1649204D01*
X38283430Y1678932D01*
X38288966Y1716844D01*
X38293020Y1748341D01*
X38295981Y1776883D01*
X38298238Y1805930D01*
X38300181Y1838943D01*
X38304036Y1911745D01*
X38345087Y1953369D01*
X38358526Y1966548D01*
X38384692Y1990020D01*
X38410529Y2010744D01*
X38434333Y2027559D01*
X38454401Y2039302D01*
X38469027Y2044813D01*
X38476507Y2042929D01*
G37*
G36*
X36141262Y3344515D02*
G01*
X36144725Y3342501D01*
X36146872Y3336990D01*
X36147855Y3326222D01*
X36147823Y3308438D01*
X36146926Y3281878D01*
X36145316Y3244782D01*
X36144252Y3221452D01*
X36142780Y3190885D01*
X36141508Y3166441D01*
X36140545Y3150180D01*
X36139999Y3144159D01*
X36136589Y3141927D01*
X36124710Y3134198D01*
X36106381Y3122289D01*
X36083754Y3107599D01*
X36065654Y3095774D01*
X36045642Y3082485D01*
X36031427Y3072783D01*
X36025286Y3068205D01*
X36021515Y3064845D01*
X36010155Y3055596D01*
X35994513Y3043303D01*
X35994229Y3043083D01*
X35971610Y3025469D01*
X35955098Y3012213D01*
X35941068Y3000215D01*
X35925896Y2986379D01*
X35905958Y2967606D01*
X35893639Y2955911D01*
X35854051Y2917737D01*
X35822561Y2886240D01*
X35798181Y2860382D01*
X35779921Y2839125D01*
X35766793Y2821429D01*
X35758143Y2809722D01*
X35745252Y2794571D01*
X35744390Y2793633D01*
X35734271Y2781197D01*
X35720397Y2762626D01*
X35705504Y2741567D01*
X35702337Y2736991D01*
X35689154Y2718660D01*
X35678766Y2705318D01*
X35673193Y2699587D01*
X35671228Y2698016D01*
X35668319Y2688817D01*
X35667871Y2685070D01*
X35663703Y2680002D01*
X35660490Y2677263D01*
X35653055Y2666080D01*
X35644028Y2649229D01*
X35637437Y2636686D01*
X35629227Y2623620D01*
X35624026Y2618552D01*
X35622341Y2618109D01*
X35619083Y2611191D01*
X35618104Y2607359D01*
X35612571Y2593855D01*
X35603248Y2573885D01*
X35591387Y2550206D01*
X35584243Y2536041D01*
X35573670Y2513623D01*
X35566397Y2496238D01*
X35563691Y2486789D01*
X35562906Y2482019D01*
X35557537Y2476996D01*
X35554684Y2475931D01*
X35551382Y2467697D01*
X35550919Y2464098D01*
X35546728Y2450011D01*
X35539590Y2432308D01*
X35537398Y2427330D01*
X35527952Y2403648D01*
X35520371Y2381600D01*
X35518948Y2377001D01*
X35512768Y2358972D01*
X35507544Y2346295D01*
X35504955Y2339685D01*
X35502145Y2323578D01*
X35501149Y2316420D01*
X35495991Y2307745D01*
X35491866Y2300821D01*
X35489836Y2287072D01*
X35488448Y2274449D01*
X35484312Y2264355D01*
X35483202Y2262801D01*
X35478823Y2250993D01*
X35475321Y2233890D01*
X35473500Y2221707D01*
X35469566Y2197345D01*
X35465268Y2172344D01*
X35465022Y2170951D01*
X35460972Y2145428D01*
X35456663Y2114479D01*
X35452986Y2084488D01*
X35452090Y2076782D01*
X35448962Y2053637D01*
X35445943Y2036126D01*
X35443582Y2027558D01*
X35442421Y2025800D01*
X35438190Y2021557D01*
X35438186Y2021557D01*
X35432676Y2024811D01*
X35419021Y2033602D01*
X35399269Y2046594D01*
X35375469Y2062451D01*
X35352485Y2077516D01*
X35327712Y2093030D01*
X35307201Y2105118D01*
X35293888Y2111996D01*
X35287050Y2115138D01*
X35277638Y2122538D01*
X35277656Y2131109D01*
X35280341Y2140694D01*
X35284057Y2159185D01*
X35287660Y2181576D01*
X35290423Y2201007D01*
X35294040Y2226490D01*
X35296829Y2246199D01*
X35297588Y2250971D01*
X35301488Y2267198D01*
X35305829Y2276664D01*
X35305939Y2276786D01*
X35309767Y2286824D01*
X35311353Y2302458D01*
X35311358Y2303253D01*
X35313243Y2317973D01*
X35317508Y2326209D01*
X35321173Y2331076D01*
X35323821Y2343497D01*
X35323828Y2343791D01*
X35325948Y2356099D01*
X35331004Y2375145D01*
X35337788Y2397197D01*
X35345091Y2418528D01*
X35351704Y2435407D01*
X35356420Y2444105D01*
X35358971Y2449679D01*
X35360590Y2462636D01*
X35362002Y2471762D01*
X35366744Y2476996D01*
X35370172Y2478968D01*
X35372899Y2488554D01*
X35373076Y2491170D01*
X35376431Y2506010D01*
X35382700Y2523943D01*
X35386853Y2533590D01*
X35396076Y2553853D01*
X35407898Y2579024D01*
X35421202Y2606811D01*
X35434869Y2634921D01*
X35447782Y2661060D01*
X35458822Y2682934D01*
X35466872Y2698251D01*
X35470813Y2704716D01*
X35471053Y2704937D01*
X35476366Y2712752D01*
X35483691Y2726257D01*
X35493054Y2742322D01*
X35503684Y2756652D01*
X35510618Y2766241D01*
X35514454Y2776655D01*
X35514918Y2779824D01*
X35520194Y2784726D01*
X35524303Y2787071D01*
X35529829Y2796999D01*
X35533015Y2804609D01*
X35541307Y2817001D01*
X35546433Y2823082D01*
X35557156Y2837349D01*
X35569690Y2855120D01*
X35575548Y2863529D01*
X35608916Y2907623D01*
X35649108Y2955854D01*
X35693636Y3005517D01*
X35740008Y3053909D01*
X35785736Y3098325D01*
X35828330Y3136061D01*
X35833830Y3140666D01*
X35853186Y3157225D01*
X35869003Y3171270D01*
X35878289Y3180158D01*
X35885932Y3186805D01*
X35895222Y3190929D01*
X35897409Y3191241D01*
X35902194Y3197084D01*
X35903235Y3199915D01*
X35911426Y3203238D01*
X35915654Y3203778D01*
X35920658Y3208066D01*
X35920746Y3208594D01*
X35926629Y3215158D01*
X35938897Y3223668D01*
X35939367Y3223946D01*
X35954326Y3233672D01*
X35965054Y3242066D01*
X35967109Y3243794D01*
X35978894Y3252069D01*
X35997234Y3263900D01*
X36019131Y3277331D01*
X36025680Y3281252D01*
X36049183Y3295327D01*
X36069825Y3307688D01*
X36083754Y3316030D01*
X36084446Y3316443D01*
X36100316Y3325021D01*
X36112989Y3330505D01*
X36118736Y3333172D01*
X36123759Y3339357D01*
X36126389Y3342625D01*
X36136769Y3344794D01*
X36141262Y3344515D01*
G37*
G36*
X39209358Y2810380D02*
G01*
X39215377Y2797209D01*
X39223412Y2772417D01*
X39228122Y2757995D01*
X39234400Y2741497D01*
X39238948Y2732720D01*
X39241989Y2726658D01*
X39244137Y2713080D01*
X39245375Y2704043D01*
X39250292Y2695484D01*
X39254123Y2689908D01*
X39256446Y2677021D01*
X39257793Y2667062D01*
X39262601Y2658557D01*
X39266498Y2652711D01*
X39268755Y2639646D01*
X39269815Y2628587D01*
X39274155Y2613853D01*
X39277719Y2606025D01*
X39285299Y2584734D01*
X39291076Y2562811D01*
X39293374Y2546162D01*
X39294402Y2537956D01*
X39298878Y2529712D01*
X39299802Y2528870D01*
X39304214Y2519053D01*
X39307712Y2503192D01*
X39308851Y2495891D01*
X39313019Y2472866D01*
X39317877Y2449301D01*
X39319542Y2441724D01*
X39325469Y2413910D01*
X39330825Y2387755D01*
X39350725Y2268071D01*
X39365215Y2132532D01*
X39372583Y1992548D01*
X39372828Y1851017D01*
X39365950Y1710834D01*
X39351949Y1574897D01*
X39330825Y1446102D01*
X39328051Y1432296D01*
X39324238Y1413918D01*
X39319602Y1392294D01*
X39313512Y1364504D01*
X39305341Y1327626D01*
X39303647Y1319858D01*
X39298942Y1297049D01*
X39295436Y1278390D01*
X39295152Y1276819D01*
X39291185Y1263750D01*
X39286546Y1258387D01*
X39282682Y1253096D01*
X39281065Y1240287D01*
X39279344Y1226702D01*
X39274910Y1218382D01*
X39271256Y1213513D01*
X39268663Y1201094D01*
X39268568Y1198918D01*
X39265802Y1183340D01*
X39260422Y1164490D01*
X39254061Y1147490D01*
X39248355Y1137462D01*
X39245816Y1132085D01*
X39244137Y1119246D01*
X39242873Y1109991D01*
X39237982Y1101445D01*
X39234151Y1095869D01*
X39231828Y1082981D01*
X39230481Y1073023D01*
X39225673Y1064518D01*
X39223383Y1062481D01*
X39219519Y1052120D01*
X39218091Y1046322D01*
X39212738Y1030959D01*
X39204454Y1009192D01*
X39194346Y983753D01*
X39183523Y957378D01*
X39173093Y932799D01*
X39164164Y912750D01*
X39157843Y899966D01*
X39154743Y893129D01*
X39151818Y879963D01*
X39151110Y875639D01*
X39145664Y870648D01*
X39143025Y869808D01*
X39139509Y861998D01*
X39139508Y861889D01*
X39136716Y851478D01*
X39129966Y835650D01*
X39121382Y818621D01*
X39113085Y804605D01*
X39107197Y797819D01*
X39104667Y794751D01*
X39102581Y783971D01*
X39101498Y777306D01*
X39096427Y772174D01*
X39092850Y769866D01*
X39090272Y759865D01*
X39089118Y752711D01*
X39084118Y747556D01*
X39080540Y745248D01*
X39077963Y735247D01*
X39077027Y728102D01*
X39072957Y722938D01*
X39071988Y722627D01*
X39066165Y715334D01*
X39059499Y701397D01*
X39057992Y697716D01*
X39051548Y684994D01*
X39046762Y679856D01*
X39043250Y676572D01*
X39035673Y664846D01*
X39026387Y647544D01*
X39022538Y640068D01*
X39009817Y617212D01*
X38994297Y591078D01*
X38977744Y564467D01*
X38961924Y540181D01*
X38948604Y521021D01*
X38939549Y509789D01*
X38934164Y503392D01*
X38930253Y495058D01*
X38930163Y494380D01*
X38925164Y485939D01*
X38914866Y474236D01*
X38913189Y472527D01*
X38903454Y461078D01*
X38899480Y453576D01*
X38896785Y447179D01*
X38888542Y436371D01*
X38886498Y434069D01*
X38874935Y419710D01*
X38862588Y402899D01*
X38859300Y398223D01*
X38848630Y383553D01*
X38841214Y374076D01*
X38836638Y368635D01*
X38825423Y355061D01*
X38809841Y336074D01*
X38791775Y313966D01*
X38774334Y293503D01*
X38749856Y266277D01*
X38720789Y234967D01*
X38688743Y201220D01*
X38655328Y166686D01*
X38622152Y133012D01*
X38590827Y101845D01*
X38562961Y74835D01*
X38540165Y53629D01*
X38524048Y39874D01*
X38513884Y31792D01*
X38490749Y12406D01*
X38469725Y-6285D01*
X38457716Y-17030D01*
X38444054Y-28185D01*
X38435875Y-33502D01*
X38430019Y-36799D01*
X38419422Y-46103D01*
X38417350Y-48221D01*
X38404628Y-59189D01*
X38388649Y-71129D01*
X38384909Y-73758D01*
X38368084Y-86319D01*
X38355177Y-96994D01*
X38345784Y-104114D01*
X38336533Y-107932D01*
X38330255Y-110739D01*
X38320948Y-120241D01*
X38313867Y-128057D01*
X38305742Y-132558D01*
X38304227Y-132843D01*
X38294243Y-138305D01*
X38280943Y-148524D01*
X38279501Y-149753D01*
X38261698Y-163180D01*
X38244465Y-173856D01*
X38235483Y-178931D01*
X38216663Y-190685D01*
X38196830Y-204050D01*
X38183475Y-212824D01*
X38167744Y-221509D01*
X38157915Y-224869D01*
X38153609Y-225574D01*
X38148620Y-231024D01*
X38147964Y-233447D01*
X38140548Y-237179D01*
X38131453Y-240517D01*
X38119265Y-249488D01*
X38107750Y-257848D01*
X38096563Y-261797D01*
X38092096Y-262343D01*
X38087052Y-266413D01*
X38083366Y-270173D01*
X38071104Y-277576D01*
X38053224Y-286415D01*
X38037936Y-293874D01*
X38024555Y-301634D01*
X38019395Y-306418D01*
X38017085Y-309095D01*
X38007064Y-311034D01*
X37999910Y-312188D01*
X37994755Y-317188D01*
X37992447Y-320765D01*
X37982446Y-323343D01*
X37975291Y-324497D01*
X37970137Y-329497D01*
X37967828Y-333075D01*
X37957827Y-335652D01*
X37950673Y-336806D01*
X37945518Y-341807D01*
X37944739Y-344378D01*
X37937055Y-347961D01*
X37932017Y-349141D01*
X37917143Y-354590D01*
X37895842Y-363458D01*
X37870894Y-374626D01*
X37856151Y-381293D01*
X37827911Y-393367D01*
X37802466Y-403435D01*
X37783960Y-409820D01*
X37773772Y-413096D01*
X37760088Y-418827D01*
X37754726Y-423160D01*
X37751438Y-426215D01*
X37740365Y-427971D01*
X37730695Y-428858D01*
X37721786Y-432189D01*
X37720395Y-433313D01*
X37708770Y-439068D01*
X37691534Y-445331D01*
X37673847Y-450380D01*
X37660868Y-452497D01*
X37655182Y-453479D01*
X37650098Y-458744D01*
X37649940Y-460198D01*
X37644527Y-464898D01*
X37642979Y-462062D01*
X37643614Y-450325D01*
X37647241Y-432587D01*
X37648284Y-428197D01*
X37652380Y-406694D01*
X37656861Y-378246D01*
X37661224Y-346666D01*
X37664964Y-315768D01*
X37667578Y-289365D01*
X37668562Y-271271D01*
X37669539Y-266766D01*
X37676637Y-261797D01*
X37679849Y-261320D01*
X37693089Y-256947D01*
X37710190Y-249488D01*
X37717383Y-246183D01*
X37734097Y-239739D01*
X37745197Y-237179D01*
X37749721Y-236436D01*
X37754726Y-231024D01*
X37756032Y-227984D01*
X37764668Y-224869D01*
X37765920Y-224761D01*
X37777795Y-221322D01*
X37796552Y-214030D01*
X37818733Y-204206D01*
X37820715Y-203280D01*
X37845474Y-192053D01*
X37868743Y-182027D01*
X37885724Y-175274D01*
X37890414Y-173473D01*
X37903382Y-167086D01*
X37908591Y-162087D01*
X37910891Y-159233D01*
X37920900Y-157169D01*
X37928054Y-156015D01*
X37933209Y-151014D01*
X37935517Y-147437D01*
X37945518Y-144860D01*
X37952660Y-143991D01*
X37957827Y-140208D01*
X37957984Y-139557D01*
X37964565Y-133816D01*
X37977830Y-126896D01*
X37984114Y-123945D01*
X38003718Y-113217D01*
X38023560Y-100775D01*
X38032877Y-94623D01*
X38046275Y-86497D01*
X38053224Y-83314D01*
X38056726Y-81930D01*
X38068221Y-75232D01*
X38083997Y-64850D01*
X38094460Y-57846D01*
X38107811Y-49601D01*
X38114600Y-46386D01*
X38117062Y-45732D01*
X38125800Y-40176D01*
X38130036Y-36997D01*
X38143391Y-27627D01*
X38162754Y-14395D01*
X38185547Y925D01*
X38201012Y11403D01*
X38220489Y25148D01*
X38234217Y35531D01*
X38239913Y40875D01*
X38240170Y41427D01*
X38247536Y45933D01*
X38250346Y46517D01*
X38259808Y52066D01*
X38275102Y64343D01*
X38297598Y84399D01*
X38301661Y88011D01*
X38313780Y97513D01*
X38321097Y101324D01*
X38325111Y103228D01*
X38336218Y111609D01*
X38350700Y124404D01*
X38359245Y132245D01*
X38378715Y149224D01*
X38395529Y162870D01*
X38401775Y168071D01*
X38417681Y182580D01*
X38439461Y203293D01*
X38465477Y228573D01*
X38494093Y256783D01*
X38523670Y286288D01*
X38552572Y315449D01*
X38579161Y342631D01*
X38601800Y366197D01*
X38618851Y384509D01*
X38628678Y395932D01*
X38636914Y406233D01*
X38653108Y425261D01*
X38670221Y444332D01*
X38682345Y458040D01*
X38692484Y470955D01*
X38696378Y478013D01*
X38696388Y478222D01*
X38700615Y486317D01*
X38710226Y497801D01*
X38715668Y503524D01*
X38730914Y520643D01*
X38741592Y534298D01*
X38745615Y541887D01*
X38746699Y544741D01*
X38753308Y553110D01*
X38758274Y558885D01*
X38769235Y573343D01*
X38783162Y592799D01*
X38798358Y614757D01*
X38813129Y636721D01*
X38825779Y656196D01*
X38834613Y670684D01*
X38837934Y677690D01*
X38839339Y680887D01*
X38846039Y691970D01*
X38856398Y707551D01*
X38863239Y717966D01*
X38871598Y732502D01*
X38874862Y740972D01*
X38875109Y742816D01*
X38881016Y747556D01*
X38883926Y748691D01*
X38887171Y757045D01*
X38890466Y767027D01*
X38899480Y779747D01*
X38907887Y790959D01*
X38911789Y801031D01*
X38912289Y804208D01*
X38917944Y809102D01*
X38921521Y811410D01*
X38924098Y821411D01*
X38925252Y828566D01*
X38930253Y833720D01*
X38933830Y836029D01*
X38936407Y846030D01*
X38937562Y853184D01*
X38942562Y858339D01*
X38946139Y860647D01*
X38948717Y870648D01*
X38949586Y877790D01*
X38953369Y882957D01*
X38958752Y887878D01*
X38965285Y899882D01*
X38967872Y905921D01*
X38977164Y927727D01*
X38988475Y954385D01*
X39000668Y983197D01*
X39012603Y1011466D01*
X39023141Y1036497D01*
X39031142Y1055593D01*
X39035469Y1066056D01*
X39040752Y1079094D01*
X39048014Y1096829D01*
X39055396Y1114886D01*
X39062087Y1132056D01*
X39067084Y1146473D01*
X39072157Y1162991D01*
X39073553Y1167566D01*
X39079672Y1185609D01*
X39084873Y1198296D01*
X39087463Y1204906D01*
X39090272Y1221013D01*
X39091269Y1228171D01*
X39096427Y1236846D01*
X39100647Y1244310D01*
X39102581Y1258387D01*
X39104266Y1271590D01*
X39108736Y1279928D01*
X39112956Y1287392D01*
X39114891Y1301469D01*
X39116575Y1314673D01*
X39121045Y1323010D01*
X39121503Y1323351D01*
X39125542Y1332427D01*
X39127200Y1347629D01*
X39127216Y1349252D01*
X39128961Y1363944D01*
X39132704Y1371845D01*
X39133628Y1372687D01*
X39138040Y1382505D01*
X39141538Y1398366D01*
X39142678Y1405667D01*
X39146847Y1428692D01*
X39151709Y1452257D01*
X39153249Y1459296D01*
X39166212Y1528665D01*
X39177410Y1607136D01*
X39186536Y1691898D01*
X39193282Y1780139D01*
X39197339Y1869049D01*
X39197957Y1906758D01*
X39196684Y1985134D01*
X39192429Y2068372D01*
X39185495Y2153054D01*
X39176188Y2235764D01*
X39164812Y2313085D01*
X39151671Y2381600D01*
X39149733Y2390660D01*
X39144985Y2414991D01*
X39141538Y2435491D01*
X39140935Y2439234D01*
X39137090Y2454204D01*
X39132704Y2462012D01*
X39132278Y2462338D01*
X39128677Y2471161D01*
X39127200Y2486228D01*
X39127183Y2487788D01*
X39125237Y2502648D01*
X39121045Y2510847D01*
X39117148Y2516692D01*
X39114891Y2529757D01*
X39113513Y2540876D01*
X39107783Y2556245D01*
X39106159Y2559563D01*
X39105725Y2567227D01*
X39109716Y2578266D01*
X39119070Y2594875D01*
X39134724Y2619246D01*
X39149551Y2642226D01*
X39161729Y2663244D01*
X39170792Y2682983D01*
X39178037Y2704796D01*
X39184758Y2732037D01*
X39192254Y2768059D01*
X39194468Y2778909D01*
X39199796Y2801354D01*
X39204462Y2811803D01*
X39209358Y2810380D01*
G37*
G36*
X37533548Y4440789D02*
G01*
X37556725Y4425537D01*
X37576951Y4401041D01*
X37593380Y4368357D01*
X37605162Y4328542D01*
X37611451Y4282650D01*
X37611746Y4277793D01*
X37612259Y4252179D01*
X37610917Y4224417D01*
X37607477Y4193129D01*
X37601697Y4156941D01*
X37593334Y4114474D01*
X37582146Y4064351D01*
X37567891Y4005197D01*
X37550325Y3935635D01*
X37543692Y3909784D01*
X37522131Y3825751D01*
X37503277Y3752131D01*
X37486868Y3687744D01*
X37472642Y3631410D01*
X37460337Y3581949D01*
X37449691Y3538181D01*
X37440443Y3498926D01*
X37432330Y3463004D01*
X37425092Y3429234D01*
X37418465Y3396437D01*
X37412189Y3363433D01*
X37406001Y3329042D01*
X37399640Y3292083D01*
X37392843Y3251376D01*
X37385349Y3205743D01*
X37376897Y3154001D01*
X37369047Y3105887D01*
X37356857Y3030694D01*
X37346475Y2965818D01*
X37337741Y2910105D01*
X37330495Y2862397D01*
X37324578Y2821539D01*
X37319829Y2786373D01*
X37316090Y2755745D01*
X37313200Y2728498D01*
X37311000Y2703475D01*
X37309329Y2679521D01*
X37308029Y2655480D01*
X37307243Y2615698D01*
X37310220Y2571752D01*
X37317900Y2538960D01*
X37330347Y2517167D01*
X37347623Y2506221D01*
X37369792Y2505966D01*
X37371568Y2506381D01*
X37385439Y2512636D01*
X37401589Y2524988D01*
X37420317Y2543881D01*
X37441918Y2569760D01*
X37466688Y2603071D01*
X37494926Y2644257D01*
X37526928Y2693765D01*
X37562989Y2752038D01*
X37603408Y2819521D01*
X37648480Y2896661D01*
X37698503Y2983900D01*
X37753773Y3081685D01*
X37780553Y3129344D01*
X37814731Y3190169D01*
X37851076Y3254851D01*
X37887540Y3319744D01*
X37922074Y3381201D01*
X37952626Y3435574D01*
X37988019Y3498347D01*
X38038289Y3586600D01*
X38083494Y3664705D01*
X38123958Y3733157D01*
X38160005Y3792452D01*
X38191955Y3843086D01*
X38220134Y3885553D01*
X38244862Y3920350D01*
X38266464Y3947970D01*
X38285261Y3968911D01*
X38301578Y3983666D01*
X38315736Y3992732D01*
X38317156Y3993408D01*
X38334719Y3998630D01*
X38348075Y3994766D01*
X38358739Y3980744D01*
X38368221Y3955490D01*
X38371861Y3939351D01*
X38375768Y3907580D01*
X38378067Y3868220D01*
X38378734Y3823999D01*
X38377743Y3777645D01*
X38375069Y3731886D01*
X38370686Y3689451D01*
X38368387Y3672366D01*
X38363063Y3636277D01*
X38357182Y3602447D01*
X38350333Y3569767D01*
X38342107Y3537131D01*
X38332093Y3503433D01*
X38319880Y3467567D01*
X38305060Y3428424D01*
X38287221Y3384899D01*
X38265953Y3335885D01*
X38240846Y3280276D01*
X38211489Y3216965D01*
X38177474Y3144844D01*
X38138388Y3062809D01*
X38129251Y3043680D01*
X38099384Y2980910D01*
X38074159Y2927400D01*
X38052958Y2881748D01*
X38035161Y2842555D01*
X38020150Y2808419D01*
X38007304Y2777941D01*
X37996007Y2749719D01*
X37985637Y2722354D01*
X37975577Y2694445D01*
X37971549Y2683445D01*
X37961403Y2657141D01*
X37947909Y2623251D01*
X37932014Y2584119D01*
X37914666Y2542091D01*
X37896811Y2499510D01*
X37888109Y2478902D01*
X37866208Y2426609D01*
X37848626Y2383639D01*
X37834896Y2348550D01*
X37824549Y2319896D01*
X37817119Y2296233D01*
X37812138Y2276117D01*
X37809139Y2258102D01*
X37807654Y2240745D01*
X37807217Y2222601D01*
X37807231Y2207490D01*
X37808029Y2188342D01*
X37810640Y2176130D01*
X37816032Y2167420D01*
X37825169Y2158775D01*
X37835620Y2150748D01*
X37846536Y2146212D01*
X37861304Y2144958D01*
X37884107Y2146087D01*
X37899702Y2147955D01*
X37919205Y2152207D01*
X37941170Y2159052D01*
X37966187Y2168831D01*
X37994843Y2181884D01*
X38027726Y2198553D01*
X38065425Y2219178D01*
X38108527Y2244101D01*
X38157620Y2273663D01*
X38213293Y2308204D01*
X38276133Y2348065D01*
X38346728Y2393588D01*
X38425667Y2445113D01*
X38513537Y2502982D01*
X38610927Y2567535D01*
X38642770Y2588665D01*
X38719093Y2639001D01*
X38786404Y2682862D01*
X38845461Y2720689D01*
X38897024Y2752925D01*
X38941853Y2780011D01*
X38980707Y2802390D01*
X39014346Y2820504D01*
X39043530Y2834794D01*
X39069017Y2845704D01*
X39091568Y2853674D01*
X39111942Y2859148D01*
X39130713Y2862674D01*
X39146829Y2862971D01*
X39157200Y2857912D01*
X39162336Y2846192D01*
X39162748Y2826504D01*
X39158945Y2797541D01*
X39151438Y2757997D01*
X39147732Y2740617D01*
X39139689Y2710053D01*
X39129732Y2683790D01*
X39116222Y2658520D01*
X39097520Y2630935D01*
X39071985Y2597729D01*
X39068885Y2593861D01*
X39033150Y2552550D01*
X38989073Y2506322D01*
X38938466Y2456779D01*
X38883139Y2405523D01*
X38824903Y2354154D01*
X38765570Y2304275D01*
X38706952Y2257488D01*
X38650859Y2215393D01*
X38599104Y2179592D01*
X38592385Y2175189D01*
X38562673Y2155738D01*
X38527539Y2132768D01*
X38490819Y2108784D01*
X38456349Y2086294D01*
X38402804Y2049285D01*
X38343175Y2001249D01*
X38294014Y1952526D01*
X38254301Y1902187D01*
X38238449Y1878321D01*
X38217797Y1845875D01*
X38194401Y1808110D01*
X38169425Y1766991D01*
X38144035Y1724486D01*
X38119394Y1682560D01*
X38096667Y1643178D01*
X38077018Y1608308D01*
X38061611Y1579914D01*
X38051612Y1559962D01*
X38043004Y1540953D01*
X38032559Y1517107D01*
X38022073Y1492088D01*
X38010973Y1464404D01*
X37998683Y1432563D01*
X37984630Y1395071D01*
X37968241Y1350437D01*
X37948940Y1297167D01*
X37926154Y1233769D01*
X37912649Y1196184D01*
X37893001Y1142040D01*
X37876301Y1097042D01*
X37861880Y1059635D01*
X37849068Y1028266D01*
X37837198Y1001379D01*
X37825599Y977422D01*
X37813604Y954838D01*
X37800541Y932074D01*
X37785744Y907575D01*
X37773635Y887169D01*
X37744202Y828621D01*
X37723330Y769843D01*
X37709301Y706317D01*
X37707005Y692320D01*
X37703645Y670756D01*
X37700797Y650222D01*
X37698354Y629237D01*
X37696214Y606319D01*
X37694273Y579986D01*
X37692424Y548758D01*
X37690566Y511154D01*
X37688592Y465691D01*
X37686400Y410889D01*
X37683884Y345267D01*
X37682192Y301473D01*
X37679243Y230024D01*
X37676395Y168665D01*
X37673537Y115964D01*
X37670562Y70486D01*
X37667359Y30800D01*
X37663820Y-4529D01*
X37659835Y-36933D01*
X37655296Y-67846D01*
X37650094Y-98700D01*
X37645102Y-130439D01*
X37639825Y-170817D01*
X37635129Y-213270D01*
X37631641Y-252565D01*
X37627402Y-303309D01*
X37620738Y-361529D01*
X37612406Y-409812D01*
X37601814Y-449510D01*
X37588371Y-481970D01*
X37571489Y-508542D01*
X37550575Y-530576D01*
X37525040Y-549421D01*
X37494292Y-566427D01*
X37464961Y-578689D01*
X37418917Y-592933D01*
X37363048Y-606076D01*
X37298712Y-617875D01*
X37227268Y-628086D01*
X37150074Y-636466D01*
X37068489Y-642770D01*
X37033181Y-644767D01*
X36926316Y-648391D01*
X36821955Y-648376D01*
X36721670Y-644829D01*
X36627034Y-637855D01*
X36539618Y-627559D01*
X36460994Y-614048D01*
X36392736Y-597426D01*
X36377498Y-592852D01*
X36322786Y-572947D01*
X36278426Y-549872D01*
X36242914Y-522260D01*
X36214750Y-488742D01*
X36192432Y-447949D01*
X36174458Y-398514D01*
X36172744Y-392328D01*
X36170596Y-382271D01*
X36168819Y-369940D01*
X36167379Y-354219D01*
X36166241Y-333994D01*
X36165371Y-308150D01*
X36164734Y-275572D01*
X36164295Y-235145D01*
X36164020Y-185753D01*
X36163875Y-126283D01*
X36163824Y-55618D01*
X36163824Y-54827D01*
X36163778Y15383D01*
X36163646Y74437D01*
X36163392Y123475D01*
X36162977Y163638D01*
X36162364Y196067D01*
X36161517Y221904D01*
X36160397Y242288D01*
X36158967Y258360D01*
X36157191Y271262D01*
X36155030Y282134D01*
X36152447Y292116D01*
X36141331Y326181D01*
X36119104Y376915D01*
X36089538Y428349D01*
X36052011Y481265D01*
X36005902Y536446D01*
X35950591Y594672D01*
X35885455Y656726D01*
X35809875Y723389D01*
X35790711Y739831D01*
X35740947Y783442D01*
X35697963Y823033D01*
X35660440Y860294D01*
X35627060Y896918D01*
X35596504Y934597D01*
X35567453Y975023D01*
X35538588Y1019889D01*
X35508590Y1070885D01*
X35476140Y1129706D01*
X35439919Y1198042D01*
X35436790Y1204018D01*
X35402571Y1268800D01*
X35372665Y1323999D01*
X35346125Y1371009D01*
X35322008Y1411221D01*
X35299367Y1446026D01*
X35277256Y1476816D01*
X35254731Y1504982D01*
X35230845Y1531917D01*
X35204653Y1559011D01*
X35175210Y1587658D01*
X35173586Y1589200D01*
X35134140Y1624714D01*
X35086715Y1664427D01*
X35033732Y1706536D01*
X34977610Y1749234D01*
X34920770Y1790716D01*
X34865632Y1829177D01*
X34814617Y1862811D01*
X34770143Y1889813D01*
X34734903Y1910343D01*
X34696618Y1934065D01*
X34668202Y1953805D01*
X34648873Y1970170D01*
X34637849Y1983767D01*
X34634348Y1995203D01*
X34635374Y2001836D01*
X34644321Y2020320D01*
X34660951Y2042165D01*
X34683410Y2065120D01*
X34709844Y2086932D01*
X34765733Y2123496D01*
X34820359Y2149304D01*
X34874419Y2164352D01*
X34929347Y2169176D01*
X34938841Y2169071D01*
X34961141Y2167962D01*
X34983946Y2165303D01*
X35009108Y2160668D01*
X35038476Y2153632D01*
X35073899Y2143772D01*
X35117230Y2130663D01*
X35170317Y2113879D01*
X35206623Y2102075D01*
X35237631Y2091329D01*
X35264921Y2080716D01*
X35290171Y2069273D01*
X35315061Y2056041D01*
X35341271Y2040059D01*
X35370482Y2020366D01*
X35404373Y1996002D01*
X35444623Y1966006D01*
X35492913Y1929418D01*
X35497476Y1925951D01*
X35559691Y1879335D01*
X35613914Y1840147D01*
X35661285Y1807697D01*
X35702944Y1781295D01*
X35740032Y1760252D01*
X35773690Y1743877D01*
X35805058Y1731481D01*
X35835278Y1722375D01*
X35857238Y1717790D01*
X35905322Y1715588D01*
X35949345Y1724732D01*
X35988503Y1744865D01*
X36021989Y1775633D01*
X36048999Y1816681D01*
X36062322Y1845832D01*
X36075195Y1880941D01*
X36087111Y1921441D01*
X36098128Y1967867D01*
X36108300Y2020749D01*
X36117683Y2080618D01*
X36126335Y2148008D01*
X36134310Y2223450D01*
X36141665Y2307476D01*
X36148457Y2400618D01*
X36154739Y2503407D01*
X36160570Y2616376D01*
X36166005Y2740056D01*
X36171099Y2874979D01*
X36175910Y3021678D01*
X36176457Y3039468D01*
X36180053Y3153789D01*
X36183466Y3256755D01*
X36186757Y3349194D01*
X36189988Y3431935D01*
X36193220Y3505807D01*
X36196515Y3571639D01*
X36199936Y3630260D01*
X36203543Y3682499D01*
X36207398Y3729185D01*
X36211564Y3771146D01*
X36216101Y3809213D01*
X36221072Y3844213D01*
X36226538Y3876976D01*
X36232561Y3908330D01*
X36239203Y3939106D01*
X36246525Y3970130D01*
X36262410Y4030372D01*
X36282483Y4093540D01*
X36303482Y4145592D01*
X36325675Y4187183D01*
X36349333Y4218967D01*
X36362037Y4231332D01*
X36382558Y4243056D01*
X36401482Y4242605D01*
X36418990Y4229948D01*
X36435265Y4205057D01*
X36442106Y4189734D01*
X36448945Y4169678D01*
X36455196Y4145394D01*
X36460943Y4116074D01*
X36466272Y4080911D01*
X36471270Y4039096D01*
X36476021Y3989822D01*
X36480612Y3932280D01*
X36485128Y3865664D01*
X36489655Y3789165D01*
X36494278Y3701975D01*
X36499083Y3603287D01*
X36500621Y3570702D01*
X36505159Y3476175D01*
X36509331Y3392588D01*
X36513228Y3318910D01*
X36516942Y3254109D01*
X36520562Y3197155D01*
X36524181Y3147016D01*
X36527888Y3102662D01*
X36531775Y3063060D01*
X36535933Y3027180D01*
X36540453Y2993991D01*
X36545425Y2962461D01*
X36550941Y2931560D01*
X36557091Y2900256D01*
X36563967Y2867518D01*
X36565468Y2860560D01*
X36580756Y2792696D01*
X36594952Y2736090D01*
X36608466Y2689866D01*
X36621710Y2653151D01*
X36635092Y2625071D01*
X36649025Y2604752D01*
X36663918Y2591321D01*
X36680181Y2583903D01*
X36698225Y2581624D01*
X36712154Y2582617D01*
X36724050Y2587000D01*
X36736960Y2596773D01*
X36754357Y2613936D01*
X36759120Y2618977D01*
X36772244Y2634199D01*
X36785141Y2651451D01*
X36798059Y2671385D01*
X36811247Y2694651D01*
X36824953Y2721903D01*
X36839424Y2753790D01*
X36854910Y2790964D01*
X36871658Y2834077D01*
X36889916Y2883781D01*
X36909934Y2940727D01*
X36931958Y3005566D01*
X36956237Y3078950D01*
X36983020Y3161530D01*
X37012555Y3253958D01*
X37045089Y3356885D01*
X37080871Y3470963D01*
X37110922Y3566836D01*
X37144725Y3674022D01*
X37175451Y3770592D01*
X37203331Y3857196D01*
X37228596Y3934487D01*
X37251477Y4003117D01*
X37272205Y4063738D01*
X37291012Y4117003D01*
X37308128Y4163562D01*
X37323784Y4204069D01*
X37338211Y4239176D01*
X37351641Y4269534D01*
X37364304Y4295796D01*
X37376431Y4318614D01*
X37388253Y4338640D01*
X37389873Y4341220D01*
X37413924Y4375552D01*
X37439068Y4404975D01*
X37463300Y4427364D01*
X37484613Y4440597D01*
X37508271Y4445741D01*
X37533548Y4440789D01*
G37*
G36*
X36911679Y4412024D02*
G01*
X36986783Y4410827D01*
X37053897Y4408231D01*
X37115969Y4404006D01*
X37175947Y4397927D01*
X37236781Y4389767D01*
X37301420Y4379297D01*
X37321276Y4375961D01*
X37338318Y4372369D01*
X37347967Y4367428D01*
X37350719Y4359151D01*
X37347067Y4345552D01*
X37337505Y4324643D01*
X37322527Y4294439D01*
X37320350Y4290011D01*
X37307310Y4262797D01*
X37296708Y4239515D01*
X37289583Y4222517D01*
X37286977Y4214150D01*
X37285828Y4211107D01*
X37279001Y4208585D01*
X37264183Y4208198D01*
X37239279Y4209751D01*
X37235115Y4210095D01*
X37211513Y4212383D01*
X37192671Y4214755D01*
X37182349Y4216749D01*
X37174234Y4218870D01*
X37150730Y4222457D01*
X37117610Y4225603D01*
X37076616Y4228279D01*
X37029490Y4230454D01*
X36977974Y4232097D01*
X36923809Y4233178D01*
X36868738Y4233668D01*
X36814502Y4233535D01*
X36762843Y4232750D01*
X36715503Y4231282D01*
X36674223Y4229100D01*
X36640745Y4226176D01*
X36626349Y4224528D01*
X36590732Y4220419D01*
X36555624Y4216329D01*
X36526885Y4212940D01*
X36521812Y4212362D01*
X36498637Y4210503D01*
X36482408Y4210546D01*
X36475730Y4212511D01*
X36473884Y4216034D01*
X36466312Y4227790D01*
X36455346Y4243439D01*
X36446858Y4254107D01*
X36422683Y4274550D01*
X36396975Y4283100D01*
X36370297Y4279898D01*
X36343211Y4265089D01*
X36316280Y4238818D01*
X36290067Y4201226D01*
X36285340Y4193338D01*
X36273341Y4174924D01*
X36263160Y4163734D01*
X36251783Y4157015D01*
X36236198Y4152016D01*
X36226894Y4149366D01*
X36208345Y4143326D01*
X36196159Y4138328D01*
X36189441Y4135536D01*
X36173443Y4132582D01*
X36166284Y4131585D01*
X36157609Y4126427D01*
X36152033Y4122596D01*
X36139146Y4120272D01*
X36129187Y4118926D01*
X36120682Y4114118D01*
X36114886Y4110232D01*
X36101855Y4107963D01*
X36092087Y4106475D01*
X36086832Y4101809D01*
X36086830Y4101732D01*
X36081332Y4097437D01*
X36068368Y4095654D01*
X36068138Y4095654D01*
X36055252Y4093821D01*
X36049904Y4089499D01*
X36048832Y4086642D01*
X36040589Y4083345D01*
X36034479Y4082609D01*
X36020586Y4077908D01*
X36010557Y4073186D01*
X35994513Y4066379D01*
X35981068Y4060900D01*
X35954723Y4049609D01*
X35924978Y4036356D01*
X35893928Y4022131D01*
X35863669Y4007922D01*
X35836295Y3994719D01*
X35813901Y3983509D01*
X35798584Y3975281D01*
X35792437Y3971023D01*
X35789369Y3968493D01*
X35778589Y3966408D01*
X35771931Y3965452D01*
X35766793Y3960971D01*
X35765120Y3957539D01*
X35756022Y3952118D01*
X35755652Y3951999D01*
X35742142Y3946065D01*
X35726449Y3937247D01*
X35713012Y3928252D01*
X35706273Y3921787D01*
X35703205Y3919256D01*
X35692425Y3917171D01*
X35685760Y3916087D01*
X35680628Y3911016D01*
X35679587Y3908185D01*
X35671397Y3904862D01*
X35667150Y3904167D01*
X35662165Y3898707D01*
X35661123Y3895876D01*
X35652933Y3892552D01*
X35648686Y3891858D01*
X35643701Y3886398D01*
X35643045Y3883975D01*
X35635630Y3880243D01*
X35626534Y3876905D01*
X35614346Y3867934D01*
X35603744Y3859440D01*
X35595794Y3855625D01*
X35595336Y3855559D01*
X35587073Y3851220D01*
X35572340Y3841438D01*
X35553993Y3828093D01*
X35551473Y3826200D01*
X35533417Y3813185D01*
X35519337Y3803953D01*
X35512099Y3800398D01*
X35506476Y3797832D01*
X35496713Y3789171D01*
X35494642Y3787010D01*
X35481474Y3775479D01*
X35465218Y3763306D01*
X35461301Y3760549D01*
X35445256Y3748089D01*
X35433723Y3737441D01*
X35426550Y3730436D01*
X35419945Y3726378D01*
X35418787Y3726164D01*
X35410668Y3721269D01*
X35395867Y3709300D01*
X35373366Y3689451D01*
X35363881Y3681088D01*
X35345779Y3665555D01*
X35326589Y3649446D01*
X35319942Y3643774D01*
X35297650Y3623430D01*
X35270018Y3596868D01*
X35239156Y3566199D01*
X35207170Y3533536D01*
X35176167Y3500992D01*
X35148256Y3470679D01*
X35142857Y3464695D01*
X35123448Y3443347D01*
X35105689Y3424030D01*
X35092858Y3410316D01*
X35080205Y3396195D01*
X35059475Y3370501D01*
X35033829Y3336255D01*
X35002518Y3292480D01*
X35002236Y3292079D01*
X34987719Y3271988D01*
X34974518Y3254593D01*
X34965457Y3243621D01*
X34958229Y3234192D01*
X34954387Y3224977D01*
X34951580Y3218700D01*
X34942077Y3209393D01*
X34934322Y3201974D01*
X34929768Y3192390D01*
X34926432Y3183258D01*
X34917459Y3171047D01*
X34909052Y3159835D01*
X34905150Y3149764D01*
X34904686Y3146594D01*
X34899410Y3141692D01*
X34895301Y3139347D01*
X34889775Y3129420D01*
X34886629Y3121800D01*
X34878590Y3109417D01*
X34871095Y3099038D01*
X34858133Y3076881D01*
X34840383Y3043692D01*
X34817916Y2999603D01*
X34790801Y2944745D01*
X34785277Y2933443D01*
X34770117Y2902465D01*
X34756371Y2874426D01*
X34745367Y2852034D01*
X34738434Y2837997D01*
X34735776Y2832429D01*
X34729270Y2816332D01*
X34726667Y2805685D01*
X34726069Y2801977D01*
X34720512Y2797035D01*
X34716919Y2794689D01*
X34714358Y2784642D01*
X34713636Y2777073D01*
X34708921Y2761563D01*
X34703236Y2749461D01*
X34695342Y2730790D01*
X34684255Y2703178D01*
X34681352Y2695269D01*
X34675133Y2676840D01*
X34668340Y2655480D01*
X34667800Y2653727D01*
X34660480Y2629972D01*
X34651523Y2600897D01*
X34642742Y2572393D01*
X34641542Y2568473D01*
X34633469Y2541027D01*
X34626287Y2514967D01*
X34621429Y2495460D01*
X34620305Y2490445D01*
X34614553Y2465712D01*
X34609043Y2443146D01*
X34608297Y2440175D01*
X34603713Y2420623D01*
X34598544Y2396215D01*
X34592294Y2364527D01*
X34584466Y2323132D01*
X34582183Y2309671D01*
X34578108Y2280180D01*
X34575219Y2252354D01*
X34573491Y2235829D01*
X34570252Y2215838D01*
X34566761Y2203117D01*
X34565654Y2200211D01*
X34561716Y2181172D01*
X34558472Y2150337D01*
X34555940Y2108100D01*
X34554141Y2054857D01*
X34553094Y1991001D01*
X34552817Y1916929D01*
X34552845Y1904083D01*
X34553427Y1829056D01*
X34554708Y1765634D01*
X34556679Y1713954D01*
X34559335Y1674154D01*
X34562668Y1646370D01*
X34566673Y1630740D01*
X34569283Y1622224D01*
X34572708Y1603639D01*
X34575219Y1581503D01*
X34576564Y1567192D01*
X34580242Y1537340D01*
X34584466Y1510725D01*
X34585907Y1503014D01*
X34593437Y1463413D01*
X34599471Y1433113D01*
X34604508Y1409688D01*
X34609043Y1390711D01*
X34610843Y1383440D01*
X34616467Y1359457D01*
X34621793Y1335320D01*
X34624265Y1325117D01*
X34630478Y1302481D01*
X34638999Y1273180D01*
X34648919Y1240185D01*
X34659328Y1206466D01*
X34669317Y1174995D01*
X34677978Y1148742D01*
X34684402Y1130679D01*
X34688284Y1120696D01*
X34700115Y1091621D01*
X34708921Y1072294D01*
X34711619Y1065345D01*
X34714358Y1049215D01*
X34715523Y1041980D01*
X34720512Y1036822D01*
X34723369Y1035750D01*
X34726667Y1027507D01*
X34727510Y1021215D01*
X34732596Y1007504D01*
X34736146Y1000881D01*
X34745707Y981308D01*
X34754557Y961183D01*
X34761063Y944345D01*
X34763594Y934628D01*
X34763857Y932092D01*
X34768540Y925013D01*
X34772076Y920512D01*
X34780012Y906846D01*
X34790807Y886365D01*
X34803181Y861416D01*
X34813084Y841275D01*
X34825998Y816069D01*
X34836985Y795785D01*
X34844395Y783534D01*
X34844402Y783524D01*
X34852532Y769106D01*
X34855913Y757377D01*
X34856702Y752580D01*
X34862068Y747556D01*
X34864899Y746515D01*
X34868222Y738324D01*
X34868917Y734077D01*
X34874377Y729092D01*
X34876800Y728437D01*
X34880532Y721021D01*
X34883077Y713005D01*
X34891302Y701019D01*
X34900618Y688877D01*
X34910806Y672162D01*
X34910929Y671924D01*
X34918540Y660131D01*
X34924654Y655237D01*
X34927386Y653532D01*
X34929768Y644287D01*
X34932464Y635524D01*
X34942077Y624464D01*
X34949879Y617310D01*
X34954387Y608880D01*
X34957072Y601596D01*
X34965412Y590236D01*
X34971760Y582660D01*
X34984084Y566398D01*
X34997431Y547532D01*
X35007109Y533687D01*
X35018727Y517959D01*
X35026432Y508604D01*
X35031103Y503167D01*
X35041812Y489132D01*
X35054227Y471677D01*
X35061720Y461213D01*
X35078000Y440359D01*
X35092672Y423603D01*
X35095828Y420300D01*
X35110484Y404536D01*
X35129042Y384151D01*
X35148256Y362701D01*
X35152472Y357988D01*
X35176025Y332512D01*
X35204045Y303268D01*
X35234393Y272389D01*
X35264931Y242007D01*
X35293520Y214257D01*
X35318021Y191270D01*
X35336295Y175179D01*
X35345965Y167135D01*
X35363381Y152394D01*
X35376325Y141129D01*
X35378011Y139634D01*
X35393349Y126796D01*
X35410347Y113434D01*
X35412534Y111762D01*
X35429841Y97623D01*
X35444463Y84399D01*
X35444771Y84097D01*
X35456417Y74519D01*
X35464938Y70551D01*
X35466652Y70328D01*
X35471372Y64396D01*
X35472236Y61734D01*
X35480091Y58242D01*
X35483778Y57843D01*
X35490862Y53563D01*
X35492392Y51751D01*
X35502088Y43613D01*
X35518552Y31117D01*
X35539399Y15957D01*
X35562247Y-174D01*
X35584713Y-15582D01*
X35604415Y-28575D01*
X35618970Y-37460D01*
X35622351Y-39388D01*
X35637890Y-49064D01*
X35648241Y-56754D01*
X35654198Y-61165D01*
X35668356Y-67939D01*
X35675550Y-71319D01*
X35680628Y-77574D01*
X35682703Y-80815D01*
X35692425Y-83314D01*
X35699229Y-84074D01*
X35706273Y-87930D01*
X35706344Y-88080D01*
X35713386Y-94676D01*
X35726973Y-103710D01*
X35742666Y-112474D01*
X35756022Y-118261D01*
X35761770Y-120929D01*
X35766793Y-127114D01*
X35768932Y-130209D01*
X35778739Y-132551D01*
X35785780Y-133437D01*
X35794074Y-138034D01*
X35794854Y-138891D01*
X35804379Y-145084D01*
X35822541Y-154889D01*
X35847218Y-167263D01*
X35876288Y-181161D01*
X35907630Y-195541D01*
X35939121Y-209360D01*
X35960356Y-218476D01*
X35985469Y-229341D01*
X36005216Y-237973D01*
X36012725Y-241129D01*
X36029585Y-247113D01*
X36040605Y-249488D01*
X36044914Y-250193D01*
X36049904Y-255642D01*
X36049905Y-255719D01*
X36055404Y-260014D01*
X36068368Y-261797D01*
X36068597Y-261797D01*
X36081483Y-263630D01*
X36086832Y-267952D01*
X36090591Y-271985D01*
X36102101Y-274106D01*
X36104386Y-274108D01*
X36110649Y-274682D01*
X36115173Y-277638D01*
X36118650Y-284937D01*
X36121769Y-298540D01*
X36125221Y-320409D01*
X36129696Y-352506D01*
X36129994Y-354623D01*
X36135174Y-384413D01*
X36141861Y-414293D01*
X36148684Y-438095D01*
X36154067Y-453964D01*
X36158846Y-468622D01*
X36160687Y-475094D01*
X36159145Y-476837D01*
X36150614Y-477358D01*
X36139868Y-475134D01*
X36132991Y-471053D01*
X36128975Y-467706D01*
X36117158Y-464898D01*
X36110069Y-464232D01*
X36094441Y-459499D01*
X36092133Y-458416D01*
X36077499Y-452766D01*
X36059136Y-446783D01*
X36055407Y-445654D01*
X36035301Y-439012D01*
X36019131Y-432895D01*
X36019102Y-432883D01*
X35988413Y-420209D01*
X35960662Y-409507D01*
X35945599Y-403785D01*
X35916580Y-392018D01*
X35883751Y-378017D01*
X35849004Y-362663D01*
X35814233Y-346835D01*
X35781331Y-331412D01*
X35752191Y-317273D01*
X35728706Y-305298D01*
X35712769Y-296366D01*
X35706273Y-291356D01*
X35703202Y-288646D01*
X35692425Y-286415D01*
X35685773Y-285600D01*
X35680628Y-281763D01*
X35680471Y-281113D01*
X35673891Y-275372D01*
X35660626Y-268451D01*
X35654342Y-265500D01*
X35634738Y-254773D01*
X35614896Y-242331D01*
X35605573Y-236165D01*
X35592272Y-228048D01*
X35585463Y-224869D01*
X35584589Y-224622D01*
X35575750Y-219886D01*
X35560124Y-210366D01*
X35540413Y-197692D01*
X35537021Y-195474D01*
X35515028Y-181573D01*
X35495438Y-169924D01*
X35482143Y-162854D01*
X35482130Y-162848D01*
X35470185Y-156350D01*
X35465218Y-151479D01*
X35463954Y-149526D01*
X35455110Y-142237D01*
X35440599Y-132551D01*
X35432885Y-127545D01*
X35420761Y-118364D01*
X35415981Y-112634D01*
X35414950Y-110481D01*
X35406749Y-107932D01*
X35402523Y-107418D01*
X35397475Y-103316D01*
X35396503Y-101360D01*
X35388272Y-93527D01*
X35374395Y-83351D01*
X35370384Y-80595D01*
X35351170Y-65737D01*
X35335041Y-51039D01*
X35332209Y-48174D01*
X35320783Y-38131D01*
X35313500Y-34070D01*
X35313002Y-34020D01*
X35304515Y-29602D01*
X35292296Y-20222D01*
X35291734Y-19735D01*
X35278606Y-8444D01*
X35260147Y7351D01*
X35240167Y24392D01*
X35229253Y33876D01*
X35205605Y55154D01*
X35179409Y79404D01*
X35154596Y103014D01*
X35123018Y133612D01*
X35091722Y164059D01*
X35066981Y188379D01*
X35047525Y207894D01*
X35032086Y223927D01*
X35019395Y237799D01*
X35008184Y250832D01*
X34997185Y264351D01*
X34985128Y279675D01*
X34977355Y289442D01*
X34959629Y310782D01*
X34943718Y328912D01*
X34936230Y337280D01*
X34918702Y357825D01*
X34902105Y378281D01*
X34893449Y389307D01*
X34879034Y407609D01*
X34868147Y421363D01*
X34866566Y423394D01*
X34856185Y437618D01*
X34842194Y457650D01*
X34827160Y479831D01*
X34822415Y486912D01*
X34809493Y505870D01*
X34799695Y519765D01*
X34794845Y525991D01*
X34789826Y533021D01*
X34782603Y545889D01*
X34774107Y559945D01*
X34762610Y574866D01*
X34755186Y584838D01*
X34751285Y595153D01*
X34748516Y602271D01*
X34738976Y612155D01*
X34731310Y620078D01*
X34726667Y631978D01*
X34725952Y637829D01*
X34722051Y643024D01*
X34718837Y645763D01*
X34711402Y656946D01*
X34702376Y673797D01*
X34695784Y686340D01*
X34687574Y699406D01*
X34682374Y704474D01*
X34681395Y704589D01*
X34677430Y710300D01*
X34675901Y714891D01*
X34669718Y729183D01*
X34659620Y751076D01*
X34646505Y778632D01*
X34631271Y809913D01*
X34619637Y833813D01*
X34605887Y862829D01*
X34594948Y886827D01*
X34587721Y903813D01*
X34585111Y911792D01*
X34584608Y914989D01*
X34578957Y919885D01*
X34575449Y922029D01*
X34572802Y931831D01*
X34571818Y938899D01*
X34566647Y947580D01*
X34563319Y951548D01*
X34560493Y963330D01*
X34559388Y970137D01*
X34554338Y975276D01*
X34550745Y977622D01*
X34548184Y987669D01*
X34547462Y995239D01*
X34542747Y1010748D01*
X34536865Y1023302D01*
X34529720Y1039899D01*
X34522949Y1055658D01*
X34516693Y1069050D01*
X34514085Y1075661D01*
X34511256Y1091766D01*
X34510260Y1098925D01*
X34505101Y1107600D01*
X34501375Y1112778D01*
X34498947Y1125401D01*
X34498020Y1134721D01*
X34494335Y1144010D01*
X34492540Y1146893D01*
X34487727Y1159479D01*
X34482651Y1177348D01*
X34477703Y1196177D01*
X34470247Y1222655D01*
X34462379Y1249155D01*
X34456868Y1268010D01*
X34446163Y1308361D01*
X34435400Y1352863D01*
X34425798Y1396384D01*
X34418573Y1433793D01*
X34416699Y1444411D01*
X34411599Y1472042D01*
X34406490Y1498416D01*
X34398706Y1543276D01*
X34390310Y1608367D01*
X34383489Y1681103D01*
X34378345Y1758936D01*
X34374977Y1839320D01*
X34373488Y1919707D01*
X34373976Y1997550D01*
X34376544Y2070303D01*
X34381292Y2135417D01*
X34383804Y2161684D01*
X34386965Y2195777D01*
X34389708Y2226445D01*
X34391631Y2249276D01*
X34393714Y2269062D01*
X34396965Y2289127D01*
X34400363Y2301590D01*
X34401455Y2304143D01*
X34403943Y2311670D01*
X34406325Y2322483D01*
X34408983Y2338816D01*
X34412298Y2362906D01*
X34416652Y2396987D01*
X34417802Y2404700D01*
X34421589Y2421233D01*
X34425688Y2430529D01*
X34429370Y2438676D01*
X34431246Y2453309D01*
X34432124Y2465051D01*
X34435242Y2482481D01*
X34441005Y2506611D01*
X34449812Y2539103D01*
X34462064Y2581624D01*
X34462202Y2582093D01*
X34469949Y2609155D01*
X34477294Y2635867D01*
X34482664Y2656509D01*
X34485100Y2665709D01*
X34490237Y2681534D01*
X34494335Y2689847D01*
X34497100Y2695426D01*
X34498947Y2708456D01*
X34500211Y2717712D01*
X34505101Y2726257D01*
X34508449Y2730274D01*
X34511256Y2742091D01*
X34511927Y2749180D01*
X34516693Y2764807D01*
X34521401Y2774827D01*
X34528178Y2790881D01*
X34534326Y2806154D01*
X34542029Y2824731D01*
X34548794Y2841074D01*
X34555162Y2857042D01*
X34555715Y2858478D01*
X34559339Y2867774D01*
X34563714Y2878729D01*
X34570147Y2894586D01*
X34579943Y2918588D01*
X34580951Y2920975D01*
X34587589Y2933491D01*
X34592768Y2938591D01*
X34594558Y2939209D01*
X34597420Y2946577D01*
X34597906Y2948807D01*
X34602552Y2960942D01*
X34611334Y2980988D01*
X34623282Y3006774D01*
X34637425Y3036129D01*
X34643775Y3049149D01*
X34657055Y3076908D01*
X34667732Y3099962D01*
X34674845Y3116207D01*
X34677430Y3123539D01*
X34677542Y3124721D01*
X34682838Y3129383D01*
X34683155Y3129412D01*
X34689148Y3135156D01*
X34695894Y3147847D01*
X34696333Y3148887D01*
X34703127Y3161227D01*
X34708950Y3166311D01*
X34712090Y3168614D01*
X34714358Y3178620D01*
X34715512Y3185774D01*
X34720512Y3190929D01*
X34722935Y3191584D01*
X34726667Y3199000D01*
X34730005Y3208096D01*
X34738976Y3220284D01*
X34747353Y3231690D01*
X34751285Y3242473D01*
X34751755Y3246425D01*
X34756353Y3253501D01*
X34757213Y3254171D01*
X34764026Y3262449D01*
X34775793Y3278522D01*
X34791126Y3300460D01*
X34808640Y3326330D01*
X34814552Y3335168D01*
X34841191Y3374200D01*
X34863059Y3404647D01*
X34881399Y3428195D01*
X34897457Y3446526D01*
X34901467Y3451294D01*
X34905150Y3458144D01*
X34909577Y3466252D01*
X34922742Y3482605D01*
X34944456Y3506969D01*
X34951741Y3515132D01*
X34968154Y3534353D01*
X34984273Y3554050D01*
X34991684Y3562696D01*
X35008467Y3580881D01*
X35031360Y3604818D01*
X35058751Y3632900D01*
X35089031Y3663519D01*
X35120588Y3695067D01*
X35151812Y3725936D01*
X35181092Y3754519D01*
X35206817Y3779207D01*
X35227376Y3798393D01*
X35241160Y3810470D01*
X35248579Y3816543D01*
X35265241Y3830575D01*
X35277503Y3841410D01*
X35279776Y3843461D01*
X35294382Y3855339D01*
X35311353Y3867809D01*
X35315318Y3870623D01*
X35331337Y3883139D01*
X35342848Y3893799D01*
X35350309Y3900750D01*
X35358234Y3904890D01*
X35360334Y3905538D01*
X35370160Y3912069D01*
X35383336Y3923354D01*
X35388748Y3928310D01*
X35400230Y3937957D01*
X35406362Y3941789D01*
X35409892Y3943431D01*
X35421095Y3950694D01*
X35436548Y3961792D01*
X35445194Y3968217D01*
X35460150Y3979091D01*
X35474139Y3988714D01*
X35490970Y3999665D01*
X35514454Y4014522D01*
X35523674Y4020329D01*
X35544148Y4033256D01*
X35560614Y4043692D01*
X35561045Y4043966D01*
X35577505Y4054134D01*
X35591387Y4062265D01*
X35596990Y4065444D01*
X35612895Y4074723D01*
X35631392Y4085722D01*
X35641531Y4091630D01*
X35658500Y4100756D01*
X35669858Y4105874D01*
X35675615Y4108606D01*
X35680628Y4114836D01*
X35682932Y4117993D01*
X35692938Y4120272D01*
X35700092Y4121426D01*
X35705247Y4126427D01*
X35707324Y4129904D01*
X35717043Y4132582D01*
X35723850Y4133395D01*
X35730891Y4137516D01*
X35732865Y4139390D01*
X35744100Y4146203D01*
X35763263Y4156328D01*
X35788144Y4168700D01*
X35816532Y4182255D01*
X35846220Y4195926D01*
X35874997Y4208649D01*
X35900655Y4219359D01*
X35912224Y4223988D01*
X35929889Y4231055D01*
X35947601Y4238169D01*
X35967475Y4246308D01*
X35980590Y4251979D01*
X35989813Y4256391D01*
X35996763Y4259090D01*
X36012893Y4261828D01*
X36020127Y4262993D01*
X36025286Y4267983D01*
X36028917Y4271984D01*
X36040309Y4274137D01*
X36050652Y4275528D01*
X36059136Y4280292D01*
X36064712Y4284123D01*
X36077600Y4286446D01*
X36087558Y4287793D01*
X36096063Y4292601D01*
X36100080Y4295948D01*
X36111897Y4298756D01*
X36118985Y4299422D01*
X36134613Y4304155D01*
X36142440Y4307719D01*
X36163732Y4315299D01*
X36185655Y4321076D01*
X36202304Y4323374D01*
X36210506Y4324392D01*
X36218717Y4328819D01*
X36225490Y4333387D01*
X36239082Y4337619D01*
X36241743Y4338147D01*
X36263898Y4342629D01*
X36292886Y4348589D01*
X36324233Y4355099D01*
X36353462Y4361230D01*
X36376097Y4366054D01*
X36382539Y4367390D01*
X36404915Y4371667D01*
X36433012Y4376708D01*
X36462262Y4381683D01*
X36475550Y4383878D01*
X36502501Y4388351D01*
X36524998Y4392111D01*
X36539194Y4394519D01*
X36544022Y4395321D01*
X36581092Y4400065D01*
X36628097Y4404177D01*
X36682993Y4407551D01*
X36743740Y4410078D01*
X36808296Y4411652D01*
X36874619Y4412165D01*
X36911679Y4412024D01*
G37*
G36*
X40850485Y1880001D02*
G01*
X40850485Y-1880455D01*
X36850001Y-1880455D01*
X32849516Y-1880455D01*
X32849516Y1880001D01*
X32849516Y1916929D01*
X33659363Y1916929D01*
X33659435Y1877327D01*
X33660422Y1790215D01*
X33662745Y1711710D01*
X33666643Y1639230D01*
X33672351Y1570194D01*
X33680106Y1502020D01*
X33690144Y1432126D01*
X33702703Y1357930D01*
X33718019Y1276851D01*
X33721726Y1257701D01*
X33727070Y1229094D01*
X33731355Y1204966D01*
X33733896Y1189109D01*
X33734474Y1185377D01*
X33738230Y1170400D01*
X33742582Y1162589D01*
X33743009Y1162263D01*
X33746609Y1153440D01*
X33748087Y1138373D01*
X33748103Y1136746D01*
X33749839Y1122062D01*
X33753561Y1114175D01*
X33754192Y1113666D01*
X33758872Y1104498D01*
X33762793Y1089193D01*
X33766411Y1068404D01*
X33770301Y1046054D01*
X33770857Y1043150D01*
X33774979Y1029899D01*
X33779533Y1024513D01*
X33779599Y1024511D01*
X33783426Y1019016D01*
X33785014Y1006049D01*
X33785015Y1005819D01*
X33786847Y992933D01*
X33791169Y987585D01*
X33795227Y983721D01*
X33797323Y972115D01*
X33798457Y960599D01*
X33802878Y945958D01*
X33804617Y942170D01*
X33810327Y926737D01*
X33816296Y907575D01*
X33818722Y899332D01*
X33824073Y883015D01*
X33827921Y873725D01*
X33828908Y871837D01*
X33833739Y859850D01*
X33839529Y842952D01*
X33840966Y838491D01*
X33847268Y819821D01*
X33852335Y806025D01*
X33862653Y780061D01*
X33874996Y748215D01*
X33886938Y716680D01*
X33897658Y687684D01*
X33906334Y663455D01*
X33912142Y646222D01*
X33914261Y638214D01*
X33914679Y635469D01*
X33920415Y630619D01*
X33923992Y628311D01*
X33926570Y618310D01*
X33927724Y611155D01*
X33932724Y606000D01*
X33936302Y603692D01*
X33938879Y593691D01*
X33940033Y586537D01*
X33945034Y581382D01*
X33948541Y579238D01*
X33951188Y569436D01*
X33952173Y562367D01*
X33957343Y553686D01*
X33960671Y549719D01*
X33963497Y537937D01*
X33964602Y531129D01*
X33969652Y525991D01*
X33973229Y523683D01*
X33975807Y513682D01*
X33976961Y506527D01*
X33981961Y501372D01*
X33985438Y499295D01*
X33988116Y489576D01*
X33988876Y482772D01*
X33992732Y475728D01*
X33995838Y471928D01*
X34003727Y459040D01*
X34014727Y439344D01*
X34027481Y415208D01*
X34034912Y400970D01*
X34051465Y370191D01*
X34067823Y340814D01*
X34081334Y317644D01*
X34082934Y314993D01*
X34094138Y295618D01*
X34102053Y280517D01*
X34105053Y272766D01*
X34108461Y265124D01*
X34117362Y253771D01*
X34125769Y242559D01*
X34129671Y232487D01*
X34130171Y229310D01*
X34135826Y224416D01*
X34138249Y223760D01*
X34141981Y216344D01*
X34144526Y208329D01*
X34152751Y196342D01*
X34162067Y184200D01*
X34172255Y167486D01*
X34172378Y167247D01*
X34179989Y155454D01*
X34186103Y150561D01*
X34188447Y149527D01*
X34191217Y141329D01*
X34191824Y137093D01*
X34196625Y132097D01*
X34196942Y132068D01*
X34202936Y126324D01*
X34209681Y113633D01*
X34210143Y112536D01*
X34216602Y100234D01*
X34221697Y95169D01*
X34221773Y95167D01*
X34227421Y90102D01*
X34234798Y78244D01*
X34242490Y64666D01*
X34249686Y54224D01*
X34256113Y45899D01*
X34267183Y30711D01*
X34280459Y11999D01*
X34293720Y-6277D01*
X34309437Y-26635D01*
X34322002Y-41565D01*
X34325593Y-45589D01*
X34335110Y-57686D01*
X34338927Y-64999D01*
X34341270Y-69559D01*
X34350210Y-80940D01*
X34363546Y-95623D01*
X34374047Y-106945D01*
X34384238Y-119037D01*
X34388189Y-125359D01*
X34388280Y-125771D01*
X34393212Y-133093D01*
X34404173Y-146464D01*
X34419081Y-163323D01*
X34436436Y-182625D01*
X34453846Y-202463D01*
X34466754Y-217675D01*
X34473612Y-225521D01*
X34488753Y-241785D01*
X34509463Y-263373D01*
X34534452Y-289000D01*
X34562434Y-317384D01*
X34592120Y-347238D01*
X34622221Y-377279D01*
X34651449Y-406222D01*
X34678517Y-432783D01*
X34702134Y-455677D01*
X34721015Y-473621D01*
X34733869Y-485329D01*
X34739410Y-489517D01*
X34744544Y-492085D01*
X34756359Y-501315D01*
X34771280Y-514949D01*
X34781053Y-524208D01*
X34803784Y-544649D01*
X34825086Y-562647D01*
X34836141Y-571652D01*
X34854388Y-586879D01*
X34868105Y-598761D01*
X34869285Y-599814D01*
X34880595Y-608885D01*
X34887388Y-612609D01*
X34890489Y-614132D01*
X34900786Y-621938D01*
X34914811Y-634150D01*
X34923738Y-641914D01*
X34936966Y-651818D01*
X34944999Y-655691D01*
X34951251Y-658499D01*
X34960541Y-668000D01*
X34967742Y-675794D01*
X34976374Y-680309D01*
X34978723Y-680895D01*
X34989259Y-687394D01*
X35002655Y-698773D01*
X35007891Y-703685D01*
X35018977Y-713383D01*
X35024627Y-717237D01*
X35028210Y-718986D01*
X35039865Y-726027D01*
X35056721Y-736733D01*
X35075910Y-749231D01*
X35094564Y-761647D01*
X35109814Y-772107D01*
X35118791Y-778738D01*
X35127419Y-784524D01*
X35141870Y-792106D01*
X35152517Y-798353D01*
X35157488Y-804389D01*
X35157745Y-805817D01*
X35164072Y-809556D01*
X35168433Y-810877D01*
X35181141Y-817570D01*
X35197493Y-828019D01*
X35207918Y-834891D01*
X35222239Y-843229D01*
X35230401Y-846483D01*
X35231473Y-846552D01*
X35238524Y-851099D01*
X35238595Y-851249D01*
X35245637Y-857845D01*
X35259225Y-866879D01*
X35274917Y-875644D01*
X35288273Y-881431D01*
X35294021Y-884098D01*
X35299044Y-890283D01*
X35299964Y-892683D01*
X35307946Y-895720D01*
X35316860Y-898377D01*
X35333034Y-905864D01*
X35352567Y-916486D01*
X35374758Y-928834D01*
X35403872Y-944107D01*
X35431367Y-957724D01*
X35435865Y-959883D01*
X35455817Y-970022D01*
X35470322Y-978307D01*
X35476501Y-983117D01*
X35478111Y-985127D01*
X35487355Y-988039D01*
X35493296Y-988803D01*
X35506845Y-993547D01*
X35507686Y-993974D01*
X35519511Y-999683D01*
X35538378Y-1008538D01*
X35560614Y-1018812D01*
X35563616Y-1020190D01*
X35585617Y-1030375D01*
X35603764Y-1038913D01*
X35614383Y-1044077D01*
X35621021Y-1046844D01*
X35634386Y-1049585D01*
X35638710Y-1050293D01*
X35643701Y-1055739D01*
X35644773Y-1058597D01*
X35653016Y-1061894D01*
X35659126Y-1062629D01*
X35673019Y-1067330D01*
X35675761Y-1068676D01*
X35695350Y-1077112D01*
X35723293Y-1087969D01*
X35756769Y-1100231D01*
X35792958Y-1112886D01*
X35829039Y-1124919D01*
X35862189Y-1135317D01*
X35866541Y-1136645D01*
X35885270Y-1142730D01*
X35899116Y-1147763D01*
X35903126Y-1149280D01*
X35919466Y-1154605D01*
X35939121Y-1160266D01*
X35946707Y-1162401D01*
X35965136Y-1168308D01*
X35977504Y-1173276D01*
X35986811Y-1176572D01*
X36003298Y-1178831D01*
X36013667Y-1180085D01*
X36021788Y-1184306D01*
X36021986Y-1184588D01*
X36030468Y-1189293D01*
X36045231Y-1193093D01*
X36048790Y-1193710D01*
X36069587Y-1197912D01*
X36091447Y-1203005D01*
X36143629Y-1215951D01*
X36194118Y-1227847D01*
X36238841Y-1237545D01*
X36280997Y-1245735D01*
X36323783Y-1253106D01*
X36324725Y-1253259D01*
X36393419Y-1263417D01*
X36470766Y-1273126D01*
X36553163Y-1281996D01*
X36637008Y-1289640D01*
X36718698Y-1295669D01*
X36797726Y-1299216D01*
X36918282Y-1299672D01*
X37044617Y-1294892D01*
X37173694Y-1285123D01*
X37302476Y-1270612D01*
X37427927Y-1251605D01*
X37547008Y-1228350D01*
X37552943Y-1227043D01*
X37579902Y-1221086D01*
X37605477Y-1215417D01*
X37613236Y-1213725D01*
X37636071Y-1209016D01*
X37654771Y-1205505D01*
X37655804Y-1205323D01*
X37670327Y-1201333D01*
X37678214Y-1196615D01*
X37685417Y-1192854D01*
X37699335Y-1191140D01*
X37712538Y-1189455D01*
X37720876Y-1184986D01*
X37721216Y-1184528D01*
X37730293Y-1180489D01*
X37745494Y-1178831D01*
X37747054Y-1178814D01*
X37761913Y-1176868D01*
X37770112Y-1172677D01*
X37775688Y-1168845D01*
X37788576Y-1166522D01*
X37798535Y-1165175D01*
X37807040Y-1160367D01*
X37811056Y-1157020D01*
X37822873Y-1154213D01*
X37829962Y-1153545D01*
X37845590Y-1148802D01*
X37849443Y-1147173D01*
X37864279Y-1141737D01*
X37887279Y-1133772D01*
X37916150Y-1124068D01*
X37948596Y-1113413D01*
X37967869Y-1107068D01*
X37997110Y-1097074D01*
X38020734Y-1088536D01*
X38036700Y-1082201D01*
X38042966Y-1078819D01*
X38047691Y-1075882D01*
X38059891Y-1074203D01*
X38069514Y-1072732D01*
X38074765Y-1068048D01*
X38075836Y-1065191D01*
X38084080Y-1061894D01*
X38088054Y-1061688D01*
X38096434Y-1059651D01*
X38108796Y-1054331D01*
X38128534Y-1044391D01*
X38139038Y-1039996D01*
X38151614Y-1037276D01*
X38155938Y-1036568D01*
X38160929Y-1031121D01*
X38161499Y-1028815D01*
X38168714Y-1024966D01*
X38177112Y-1022752D01*
X38193308Y-1016397D01*
X38213335Y-1007353D01*
X38231708Y-998678D01*
X38253788Y-988504D01*
X38270173Y-981233D01*
X38272639Y-980148D01*
X38285101Y-973319D01*
X38290175Y-968073D01*
X38292475Y-965373D01*
X38302485Y-963420D01*
X38309639Y-962266D01*
X38314794Y-957266D01*
X38316430Y-954011D01*
X38325564Y-951088D01*
X38326659Y-951034D01*
X38339767Y-947250D01*
X38355577Y-939332D01*
X38358361Y-937648D01*
X38370706Y-930428D01*
X38387756Y-920806D01*
X38411048Y-907932D01*
X38442119Y-890954D01*
X38482506Y-869020D01*
X38488329Y-865701D01*
X38500670Y-857245D01*
X38505586Y-851496D01*
X38507887Y-848586D01*
X38517895Y-846483D01*
X38525050Y-845329D01*
X38530204Y-840329D01*
X38530860Y-837906D01*
X38538276Y-834174D01*
X38547371Y-830836D01*
X38559560Y-821865D01*
X38569715Y-813311D01*
X38576219Y-809556D01*
X38577625Y-809101D01*
X38587404Y-803691D01*
X38603933Y-793466D01*
X38624762Y-780053D01*
X38647442Y-765081D01*
X38669522Y-750180D01*
X38688552Y-736976D01*
X38702082Y-727100D01*
X38707662Y-722180D01*
X38708720Y-720596D01*
X38717272Y-717237D01*
X38725034Y-714612D01*
X38736761Y-706299D01*
X38739038Y-704278D01*
X38753403Y-692740D01*
X38770234Y-680438D01*
X38775470Y-676775D01*
X38788264Y-667470D01*
X38794852Y-662126D01*
X38795187Y-661793D01*
X38802494Y-655799D01*
X38816588Y-644854D01*
X38834772Y-631057D01*
X38835779Y-630300D01*
X38855676Y-615116D01*
X38872966Y-601548D01*
X38884009Y-592451D01*
X38884593Y-591939D01*
X38896138Y-582284D01*
X38913562Y-568164D01*
X38933330Y-552446D01*
X38933918Y-551982D01*
X38954565Y-535145D01*
X38973458Y-518807D01*
X38986575Y-506442D01*
X38989484Y-503484D01*
X39000361Y-493534D01*
X39006670Y-489517D01*
X39011618Y-486228D01*
X39024152Y-475314D01*
X39042782Y-458012D01*
X39066191Y-435625D01*
X39093065Y-409450D01*
X39122086Y-380790D01*
X39151940Y-350944D01*
X39181311Y-321212D01*
X39208883Y-292895D01*
X39233341Y-267293D01*
X39253369Y-245706D01*
X39257586Y-241064D01*
X39278291Y-218374D01*
X39298397Y-196480D01*
X39314078Y-179552D01*
X39322643Y-170158D01*
X39340028Y-150044D01*
X39354083Y-132551D01*
X39357835Y-127620D01*
X39369555Y-112784D01*
X39378021Y-102855D01*
X39382574Y-97417D01*
X39393131Y-83382D01*
X39405462Y-65927D01*
X39413513Y-54507D01*
X39426699Y-36948D01*
X39436795Y-24845D01*
X39441976Y-18897D01*
X39454364Y-3097D01*
X39467568Y15160D01*
X39474915Y25526D01*
X39487886Y42824D01*
X39497759Y54786D01*
X39504950Y64203D01*
X39508785Y73430D01*
X39511591Y79708D01*
X39521094Y89015D01*
X39528950Y95852D01*
X39533403Y102961D01*
X39534310Y105488D01*
X39540599Y116731D01*
X39551563Y134230D01*
X39565646Y155455D01*
X39572537Y165646D01*
X39586873Y187205D01*
X39598210Y204736D01*
X39604559Y215184D01*
X39616254Y236286D01*
X39626197Y253151D01*
X39631876Y261343D01*
X39635701Y266637D01*
X39642647Y278268D01*
X39648535Y288867D01*
X39658033Y305964D01*
X39663741Y315651D01*
X39668804Y322889D01*
X39670490Y324984D01*
X39678228Y337553D01*
X39689986Y358887D01*
X39704903Y387248D01*
X39722119Y420895D01*
X39740774Y458089D01*
X39760006Y497090D01*
X39778956Y536158D01*
X39796763Y573555D01*
X39812566Y607539D01*
X39825505Y636372D01*
X39834719Y658315D01*
X39838166Y666632D01*
X39846012Y684768D01*
X39855535Y706310D01*
X39864718Y726705D01*
X39871544Y741401D01*
X39873339Y745695D01*
X39878602Y760754D01*
X39884523Y779868D01*
X39887801Y790057D01*
X39893534Y803740D01*
X39897867Y809102D01*
X39900993Y812727D01*
X39902678Y824125D01*
X39904069Y834469D01*
X39908833Y842952D01*
X39912180Y846969D01*
X39914988Y858785D01*
X39915778Y866123D01*
X39921014Y881502D01*
X39921086Y881631D01*
X39925846Y893032D01*
X39932914Y913370D01*
X39941524Y940064D01*
X39950911Y970536D01*
X39960308Y1002204D01*
X39968951Y1032490D01*
X39976072Y1058813D01*
X39980906Y1078594D01*
X39982688Y1089253D01*
X39983888Y1099033D01*
X39988193Y1107198D01*
X39989113Y1108038D01*
X39993492Y1117854D01*
X39996923Y1133718D01*
X39997660Y1138592D01*
X40001919Y1161437D01*
X40007142Y1184532D01*
X40007763Y1186999D01*
X40019638Y1236864D01*
X40029742Y1284404D01*
X40037448Y1326477D01*
X40042129Y1359938D01*
X40043546Y1370632D01*
X40047105Y1387404D01*
X40050956Y1396558D01*
X40053195Y1401808D01*
X40055607Y1416848D01*
X40056543Y1436870D01*
X40057022Y1451178D01*
X40059083Y1468176D01*
X40062218Y1477183D01*
X40062309Y1477281D01*
X40065588Y1486300D01*
X40068760Y1503809D01*
X40071149Y1526112D01*
X40071181Y1526534D01*
X40073032Y1549894D01*
X40075636Y1581350D01*
X40078652Y1616835D01*
X40081738Y1652281D01*
X40082399Y1660273D01*
X40084834Y1700378D01*
X40086725Y1749361D01*
X40088069Y1804869D01*
X40088866Y1864550D01*
X40089114Y1926050D01*
X40088811Y1987016D01*
X40087956Y2045097D01*
X40086547Y2097940D01*
X40084584Y2143191D01*
X40082064Y2178499D01*
X40079058Y2211047D01*
X40075869Y2247178D01*
X40073126Y2279850D01*
X40071207Y2304668D01*
X40070956Y2308015D01*
X40068512Y2330643D01*
X40065402Y2348041D01*
X40062235Y2356674D01*
X40059954Y2361924D01*
X40057497Y2376965D01*
X40056543Y2396987D01*
X40056072Y2411293D01*
X40054043Y2428292D01*
X40050956Y2437299D01*
X40048881Y2441070D01*
X40045023Y2454958D01*
X40042052Y2473919D01*
X40041127Y2482316D01*
X40036101Y2521282D01*
X40031033Y2548967D01*
X40025770Y2566238D01*
X40024944Y2568298D01*
X40020435Y2583991D01*
X40016684Y2603165D01*
X40016448Y2604736D01*
X40012901Y2628325D01*
X40009497Y2650902D01*
X40008866Y2654657D01*
X40004926Y2669619D01*
X40000502Y2677422D01*
X39997308Y2681834D01*
X39994997Y2693872D01*
X39993352Y2708061D01*
X39989033Y2725820D01*
X39987214Y2731814D01*
X39981790Y2750638D01*
X39974791Y2775683D01*
X39967273Y2803190D01*
X39962653Y2820049D01*
X39952119Y2857027D01*
X39941247Y2893538D01*
X39930753Y2927300D01*
X39921356Y2956032D01*
X39913772Y2977453D01*
X39908721Y2989283D01*
X39905717Y2996246D01*
X39902678Y3012362D01*
X39901513Y3019597D01*
X39896524Y3024755D01*
X39892931Y3027101D01*
X39890369Y3037148D01*
X39889369Y3045888D01*
X39884215Y3061766D01*
X39880111Y3069918D01*
X39871905Y3086217D01*
X39868428Y3094765D01*
X39865751Y3107758D01*
X39865043Y3112083D01*
X39859596Y3117074D01*
X39856744Y3118140D01*
X39853442Y3126373D01*
X39852869Y3130335D01*
X39847567Y3146715D01*
X39836982Y3172873D01*
X39821453Y3208054D01*
X39801318Y3251503D01*
X39776917Y3302463D01*
X39748588Y3360180D01*
X39747850Y3361668D01*
X39727156Y3403097D01*
X39711057Y3434621D01*
X39698901Y3457423D01*
X39690037Y3472686D01*
X39683812Y3481592D01*
X39679574Y3485324D01*
X39677044Y3488392D01*
X39674958Y3499171D01*
X39674152Y3505831D01*
X39670343Y3511063D01*
X39667129Y3513802D01*
X39659694Y3524986D01*
X39650668Y3541836D01*
X39644076Y3554379D01*
X39635866Y3567446D01*
X39630665Y3572514D01*
X39629322Y3572761D01*
X39625722Y3579057D01*
X39625490Y3580064D01*
X39620678Y3589692D01*
X39610585Y3606911D01*
X39596462Y3629641D01*
X39579562Y3655800D01*
X39574819Y3663040D01*
X39558568Y3688277D01*
X39545418Y3709366D01*
X39536614Y3724278D01*
X39533403Y3730985D01*
X39530549Y3736225D01*
X39521094Y3744842D01*
X39513292Y3751996D01*
X39508785Y3760427D01*
X39506099Y3767711D01*
X39497759Y3779071D01*
X39491436Y3786626D01*
X39479140Y3802895D01*
X39465834Y3821775D01*
X39456198Y3835471D01*
X39443823Y3851745D01*
X39435024Y3861779D01*
X39432940Y3863852D01*
X39422094Y3876574D01*
X39410222Y3892552D01*
X39406969Y3897209D01*
X39396364Y3911793D01*
X39388973Y3921105D01*
X39388711Y3921396D01*
X39380621Y3931460D01*
X39370306Y3945420D01*
X39365047Y3952431D01*
X39350925Y3969773D01*
X39335310Y3987646D01*
X39327078Y3996769D01*
X39311606Y4014281D01*
X39299919Y4027953D01*
X39289315Y4040383D01*
X39267917Y4064319D01*
X39242176Y4092223D01*
X39214726Y4121284D01*
X39188201Y4148692D01*
X39165236Y4171636D01*
X39141714Y4194507D01*
X39094401Y4240211D01*
X39054136Y4278599D01*
X39019819Y4310679D01*
X38990349Y4337458D01*
X38964624Y4359944D01*
X38941544Y4379144D01*
X38920008Y4396065D01*
X38906590Y4406506D01*
X38890827Y4419323D01*
X38881010Y4428000D01*
X38875362Y4433159D01*
X38861209Y4444997D01*
X38844083Y4458547D01*
X38832482Y4467769D01*
X38820010Y4478554D01*
X38814341Y4484704D01*
X38813002Y4486492D01*
X38804084Y4489548D01*
X38800909Y4489894D01*
X38793826Y4494421D01*
X38793324Y4495165D01*
X38785617Y4502011D01*
X38770891Y4513205D01*
X38751770Y4526733D01*
X38747142Y4529915D01*
X38728619Y4542838D01*
X38714905Y4552697D01*
X38708688Y4557568D01*
X38707119Y4558897D01*
X38697219Y4565921D01*
X38680618Y4577087D01*
X38659738Y4590831D01*
X38636999Y4605586D01*
X38614823Y4619787D01*
X38595633Y4631869D01*
X38581849Y4640266D01*
X38575894Y4643413D01*
X38569977Y4646901D01*
X38559560Y4655722D01*
X38548347Y4664128D01*
X38538276Y4668031D01*
X38535099Y4668531D01*
X38530204Y4674186D01*
X38527896Y4677763D01*
X38517895Y4680340D01*
X38510750Y4681282D01*
X38505586Y4685378D01*
X38502678Y4688963D01*
X38490730Y4697140D01*
X38469090Y4709708D01*
X38437277Y4726946D01*
X38394803Y4749133D01*
X38384953Y4754444D01*
X38371295Y4762780D01*
X38365056Y4768043D01*
X38361988Y4770573D01*
X38351208Y4772659D01*
X38344544Y4773743D01*
X38339412Y4778814D01*
X38337104Y4782391D01*
X38327103Y4784968D01*
X38319948Y4786122D01*
X38314794Y4791123D01*
X38312486Y4794700D01*
X38302485Y4797277D01*
X38295330Y4798432D01*
X38290175Y4803432D01*
X38287867Y4807009D01*
X38277866Y4809587D01*
X38270712Y4810741D01*
X38265557Y4815741D01*
X38263249Y4819318D01*
X38253248Y4821896D01*
X38246093Y4823050D01*
X38240939Y4828050D01*
X38240098Y4830689D01*
X38232288Y4834205D01*
X38229755Y4834499D01*
X38216720Y4838531D01*
X38199977Y4845787D01*
X38193377Y4848985D01*
X38169371Y4860277D01*
X38143291Y4872170D01*
X38119525Y4882682D01*
X38102460Y4889832D01*
X38096854Y4892034D01*
X38080474Y4898473D01*
X38057709Y4907423D01*
X38031682Y4917659D01*
X38016225Y4923643D01*
X37989483Y4933578D01*
X37966729Y4941535D01*
X37951673Y4946188D01*
X37950999Y4946362D01*
X37932030Y4951936D01*
X37916284Y4957587D01*
X37904054Y4962606D01*
X37874748Y4973647D01*
X37844646Y4983904D01*
X37816799Y4992418D01*
X37794258Y4998229D01*
X37780075Y5000379D01*
X37772226Y5001491D01*
X37767035Y5005860D01*
X37766839Y5006633D01*
X37759704Y5011247D01*
X37745494Y5015092D01*
X37724728Y5018707D01*
X37702355Y5022600D01*
X37699938Y5023051D01*
X37685199Y5027205D01*
X37677373Y5031832D01*
X37677048Y5032257D01*
X37668236Y5035837D01*
X37653175Y5037307D01*
X37651615Y5037324D01*
X37636756Y5039269D01*
X37628557Y5043461D01*
X37627390Y5044632D01*
X37616886Y5048185D01*
X37600498Y5049616D01*
X37595301Y5049759D01*
X37581697Y5051893D01*
X37576243Y5055770D01*
X37576209Y5056131D01*
X37570110Y5060235D01*
X37556677Y5061925D01*
X37538912Y5063437D01*
X37518211Y5067895D01*
X37513353Y5069232D01*
X37493996Y5073395D01*
X37465342Y5078670D01*
X37429444Y5084737D01*
X37388355Y5091272D01*
X37344126Y5097956D01*
X37298809Y5104467D01*
X37254457Y5110483D01*
X37213122Y5115682D01*
X37203725Y5116711D01*
X37166522Y5119664D01*
X37119643Y5122132D01*
X37065083Y5124107D01*
X37004838Y5125581D01*
X36940903Y5126547D01*
X36875273Y5126995D01*
X36809945Y5126917D01*
X36746913Y5126306D01*
X36688173Y5125154D01*
X36635720Y5123451D01*
X36591550Y5121191D01*
X36557658Y5118364D01*
X36523263Y5114333D01*
X36479552Y5108740D01*
X36433520Y5102442D01*
X36387243Y5095755D01*
X36342798Y5088997D01*
X36302261Y5082485D01*
X36267711Y5076534D01*
X36241222Y5071463D01*
X36224873Y5067587D01*
X36207869Y5063767D01*
X36189847Y5061925D01*
X36178409Y5060561D01*
X36170320Y5056420D01*
X36169480Y5055500D01*
X36159664Y5051121D01*
X36143800Y5047690D01*
X36138902Y5046947D01*
X36116066Y5042652D01*
X36092986Y5037363D01*
X36086764Y5035808D01*
X36064189Y5030653D01*
X36045231Y5026950D01*
X36044207Y5026774D01*
X36029678Y5022854D01*
X36021788Y5018163D01*
X36016179Y5014686D01*
X36003298Y5012688D01*
X35992236Y5011597D01*
X35977504Y5007133D01*
X35973771Y5005436D01*
X35958326Y4999896D01*
X35939121Y4994224D01*
X35931553Y4992121D01*
X35913114Y4986265D01*
X35900739Y4981315D01*
X35894096Y4978613D01*
X35878685Y4975761D01*
X35872259Y4975178D01*
X35863253Y4971696D01*
X35857423Y4968734D01*
X35842035Y4962536D01*
X35819719Y4954231D01*
X35792988Y4944784D01*
X35792979Y4944781D01*
X35744593Y4927956D01*
X35706954Y4914569D01*
X35679107Y4904252D01*
X35660091Y4896639D01*
X35648951Y4891363D01*
X35644727Y4888058D01*
X35641845Y4885589D01*
X35631242Y4883442D01*
X35624722Y4882534D01*
X35616005Y4877287D01*
X35612038Y4873959D01*
X35600256Y4871133D01*
X35593448Y4870028D01*
X35588310Y4864978D01*
X35587238Y4862121D01*
X35578994Y4858823D01*
X35572880Y4858085D01*
X35558992Y4853374D01*
X35546509Y4847061D01*
X35515623Y4831935D01*
X35489956Y4820083D01*
X35471386Y4812352D01*
X35461789Y4809587D01*
X35458964Y4809286D01*
X35451883Y4804676D01*
X35449721Y4802627D01*
X35438601Y4795561D01*
X35420353Y4785394D01*
X35397517Y4773578D01*
X35391218Y4770406D01*
X35360371Y4754466D01*
X35328687Y4737571D01*
X35302121Y4722885D01*
X35297386Y4720207D01*
X35276056Y4708501D01*
X35258548Y4699438D01*
X35248268Y4694796D01*
X35242506Y4692031D01*
X35237498Y4685777D01*
X35237239Y4684269D01*
X35230914Y4680340D01*
X35226553Y4679019D01*
X35213845Y4672326D01*
X35197493Y4661876D01*
X35187078Y4655035D01*
X35172542Y4646676D01*
X35164072Y4643413D01*
X35162247Y4643200D01*
X35157488Y4638005D01*
X35157459Y4637688D01*
X35151715Y4631694D01*
X35139024Y4624949D01*
X35137930Y4624488D01*
X35125626Y4618013D01*
X35120561Y4612881D01*
X35116328Y4607935D01*
X35104943Y4601345D01*
X35092981Y4595217D01*
X35081863Y4588027D01*
X35074232Y4582361D01*
X35059167Y4571864D01*
X35040551Y4559293D01*
X35023757Y4547631D01*
X35010490Y4537438D01*
X35004649Y4531619D01*
X35003482Y4529867D01*
X34994791Y4526475D01*
X34992273Y4525906D01*
X34981274Y4519415D01*
X34967665Y4508012D01*
X34962530Y4503266D01*
X34950495Y4493454D01*
X34943336Y4489548D01*
X34939874Y4488052D01*
X34929068Y4480248D01*
X34914811Y4468007D01*
X34905874Y4460132D01*
X34893378Y4450305D01*
X34886415Y4446466D01*
X34881901Y4444120D01*
X34870573Y4435180D01*
X34855913Y4421847D01*
X34844594Y4411345D01*
X34832500Y4401138D01*
X34826177Y4397166D01*
X34826115Y4397162D01*
X34819712Y4393003D01*
X34807213Y4382521D01*
X34791265Y4367931D01*
X34775602Y4353520D01*
X34752838Y4333580D01*
X34733010Y4317219D01*
X34727979Y4312995D01*
X34712893Y4299252D01*
X34691723Y4279194D01*
X34665964Y4254306D01*
X34637110Y4226074D01*
X34606655Y4195986D01*
X34576093Y4165525D01*
X34546920Y4136179D01*
X34520630Y4109434D01*
X34498716Y4086775D01*
X34482675Y4069689D01*
X34473998Y4059662D01*
X34470022Y4054607D01*
X34457604Y4039904D01*
X34443048Y4023575D01*
X34435568Y4015217D01*
X34417226Y3993676D01*
X34400296Y3972654D01*
X34392018Y3962284D01*
X34375783Y3943278D01*
X34362007Y3928641D01*
X34359179Y3925816D01*
X34349140Y3914106D01*
X34345082Y3906382D01*
X34344543Y3904405D01*
X34338181Y3894576D01*
X34326950Y3881559D01*
X34324049Y3878435D01*
X34308072Y3859108D01*
X34293827Y3839103D01*
X34290750Y3834388D01*
X34277489Y3815597D01*
X34265415Y3800387D01*
X34263199Y3797773D01*
X34250736Y3780806D01*
X34238936Y3761921D01*
X34235343Y3755797D01*
X34226950Y3743555D01*
X34221604Y3738688D01*
X34221335Y3738655D01*
X34216101Y3732893D01*
X34209681Y3720224D01*
X34209242Y3719184D01*
X34202448Y3706843D01*
X34196625Y3701760D01*
X34194506Y3701111D01*
X34191217Y3693689D01*
X34187879Y3684593D01*
X34178908Y3672405D01*
X34170448Y3661559D01*
X34166599Y3652781D01*
X34166380Y3651087D01*
X34160444Y3646369D01*
X34158022Y3645713D01*
X34154290Y3638297D01*
X34151745Y3630282D01*
X34143519Y3618295D01*
X34134204Y3606153D01*
X34124015Y3589439D01*
X34123892Y3589200D01*
X34116281Y3577407D01*
X34110168Y3572514D01*
X34107677Y3571262D01*
X34105053Y3562693D01*
X34101685Y3550965D01*
X34093580Y3536536D01*
X34090754Y3532322D01*
X34079232Y3513317D01*
X34063432Y3485435D01*
X34044246Y3450270D01*
X34022565Y3409417D01*
X34018754Y3402422D01*
X34010463Y3389013D01*
X34005041Y3382747D01*
X34002511Y3379679D01*
X34000425Y3368899D01*
X33999341Y3362235D01*
X33994270Y3357103D01*
X33991874Y3356468D01*
X33988116Y3349098D01*
X33986119Y3338990D01*
X33980547Y3325029D01*
X33973750Y3313034D01*
X33968113Y3307914D01*
X33966048Y3306931D01*
X33963497Y3298822D01*
X33963276Y3296719D01*
X33959062Y3283987D01*
X33951188Y3267861D01*
X33948864Y3263560D01*
X33941746Y3247791D01*
X33938879Y3236901D01*
X33938215Y3232828D01*
X33932724Y3227857D01*
X33929147Y3225548D01*
X33926570Y3215547D01*
X33925416Y3208393D01*
X33920415Y3203238D01*
X33918148Y3202691D01*
X33914335Y3195545D01*
X33912754Y3189183D01*
X33907405Y3173048D01*
X33899070Y3149632D01*
X33888572Y3121168D01*
X33876737Y3089891D01*
X33864392Y3058035D01*
X33852360Y3027832D01*
X33851376Y3025322D01*
X33845777Y3009720D01*
X33839529Y2990905D01*
X33837763Y2985494D01*
X33832057Y2969548D01*
X33827921Y2960132D01*
X33826502Y2957179D01*
X33821779Y2944162D01*
X33816296Y2926282D01*
X33814032Y2918621D01*
X33807921Y2900236D01*
X33802878Y2887899D01*
X33799526Y2878293D01*
X33797323Y2861742D01*
X33795786Y2851541D01*
X33791169Y2846272D01*
X33786830Y2840977D01*
X33785014Y2828171D01*
X33783477Y2814676D01*
X33779540Y2806687D01*
X33779260Y2806492D01*
X33774594Y2798011D01*
X33770880Y2783244D01*
X33770452Y2780697D01*
X33766068Y2760073D01*
X33760396Y2738567D01*
X33759509Y2735512D01*
X33753895Y2713525D01*
X33749911Y2693889D01*
X33749744Y2692876D01*
X33745909Y2678340D01*
X33741252Y2670446D01*
X33740256Y2669431D01*
X33737064Y2659312D01*
X33735777Y2643170D01*
X33735678Y2638823D01*
X33733582Y2623557D01*
X33729623Y2615475D01*
X33725924Y2610392D01*
X33723468Y2597835D01*
X33723465Y2597503D01*
X33722204Y2585728D01*
X33719003Y2564891D01*
X33714328Y2537838D01*
X33708645Y2507418D01*
X33697276Y2445884D01*
X33686088Y2376806D01*
X33677148Y2309450D01*
X33670262Y2241485D01*
X33665235Y2170582D01*
X33661872Y2094408D01*
X33659980Y2010634D01*
X33659363Y1916929D01*
X32849516Y1916929D01*
X32849516Y5640456D01*
X36850001Y5640456D01*
X40850485Y5640456D01*
X40850485Y1926050D01*
X40850485Y1880001D01*
G37*
%TD*%
M02*
